ISO-10303-21;
HEADER;
FILE_DESCRIPTION (( 'STEP AP203' ),
    '1' );
FILE_NAME ('CSWP_18_21.STEP',
    '2026-08-01T00:42:47',
    ( '' ),
    ( '' ),
    'SwSTEP 2.0',
    'SolidWorks 2026',
    '' );
FILE_SCHEMA (( 'CONFIG_CONTROL_DESIGN' ));
ENDSEC;

DATA;
#1 = ORIENTED_EDGE ( 'NONE', *, *, #1008, .F. ) ;
#2 = DIRECTION ( 'NONE',  ( 0.000000000000000000, 1.000000000000000000, 0.000000000000000000 ) ) ;
#3 = ORIENTED_EDGE ( 'NONE', *, *, #928, .F. ) ;
#4 = AXIS2_PLACEMENT_3D ( 'NONE', #752, #759, #263 ) ;
#5 = ADVANCED_FACE ( 'NONE', ( #351 ), #745, .F. ) ;
#6 = AXIS2_PLACEMENT_3D ( 'NONE', #987, #193, #683 ) ;
#7 = ORIENTED_EDGE ( 'NONE', *, *, #666, .F. ) ;
#8 =( NAMED_UNIT ( * ) PLANE_ANGLE_UNIT ( ) SI_UNIT ( $, .RADIAN. ) );
#9 = CIRCLE ( 'NONE', #817, 9.000000000000001776 ) ;
#10 = CIRCLE ( 'NONE', #678, 1.079365419737748910 ) ;
#11 = CARTESIAN_POINT ( 'NONE',  ( 25.00000000000000000, 2.000000000000000000, -2.499999999999931166 ) ) ;
#12 = VECTOR ( 'NONE', #811, 1000.000000000000000 ) ;
#13 = ORIENTED_EDGE ( 'NONE', *, *, #88, .T. ) ;
#14 = DIRECTION ( 'NONE',  ( 0.000000000000000000, 0.000000000000000000, -1.000000000000000000 ) ) ;
#15 = ORIENTED_EDGE ( 'NONE', *, *, #41, .F. ) ;
#16 = DATE_TIME_ROLE ( 'creation_date' ) ;
#17 = EDGE_CURVE ( 'NONE', #387, #790, #148, .T. ) ;
#18 = CARTESIAN_POINT ( 'NONE',  ( 25.00000000000000000, 0.000000000000000000, -2.499999999999931166 ) ) ;
#19 = DIRECTION ( 'NONE',  ( 0.000000000000000000, 0.000000000000000000, 1.000000000000000000 ) ) ;
#20 = VERTEX_POINT ( 'NONE', #923 ) ;
#21 = CARTESIAN_POINT ( 'NONE',  ( 0.000000000000000000, 65.00000000000000000, 2.500000000000000000 ) ) ;
#22 = ORIENTED_EDGE ( 'NONE', *, *, #149, .F. ) ;
#23 = CARTESIAN_POINT ( 'NONE',  ( -5.000000000000000000, 90.00000000000000000, 0.000000000000000000 ) ) ;
#24 = EDGE_CURVE ( 'NONE', #292, #182, #1025, .T. ) ;
#25 = ORIENTED_EDGE ( 'NONE', *, *, #1042, .F. ) ;
#26 = DIRECTION ( 'NONE',  ( 0.000000000000000000, 0.000000000000000000, 1.000000000000000000 ) ) ;
#27 = ORIENTED_EDGE ( 'NONE', *, *, #270, .F. ) ;
#28 = ORIENTED_EDGE ( 'NONE', *, *, #814, .T. ) ;
#29 =( GEOMETRIC_REPRESENTATION_CONTEXT ( 3 ) GLOBAL_UNCERTAINTY_ASSIGNED_CONTEXT ( ( #1037 ) ) GLOBAL_UNIT_ASSIGNED_CONTEXT ( ( #181, #8, #285 ) ) REPRESENTATION_CONTEXT ( 'NONE', 'WORKASPACE' ) );
#30 = DIRECTION ( 'NONE',  ( 0.000000000000000000, -0.9986295347545739443, 0.05233595624294395260 ) ) ;
#31 = CIRCLE ( 'NONE', #1168, 9.999999999999998224 ) ;
#32 = ORIENTED_EDGE ( 'NONE', *, *, #1217, .T. ) ;
#33 = FACE_BOUND ( 'NONE', #1183, .T. ) ;
#34 = ADVANCED_FACE ( 'NONE', ( #1226 ), #339, .F. ) ;
#35 = AXIS2_PLACEMENT_3D ( 'NONE', #631, #144, #1024 ) ;
#36 = DIRECTION ( 'NONE',  ( 0.000000000000000000, 0.000000000000000000, 1.000000000000000000 ) ) ;
#37 = CARTESIAN_POINT ( 'NONE',  ( 5.000000000000000000, 82.00000000000000000, -2.499999999999999112 ) ) ;
#38 = ORIENTED_EDGE ( 'NONE', *, *, #720, .F. ) ;
#39 = DIRECTION ( 'NONE',  ( 1.000000000000000000, -0.000000000000000000, 0.000000000000000000 ) ) ;
#40 = ORIENTED_EDGE ( 'NONE', *, *, #791, .F. ) ;
#41 = EDGE_CURVE ( 'NONE', #1279, #161, #10, .T. ) ;
#42 = ORIENTED_EDGE ( 'NONE', *, *, #1088, .T. ) ;
#43 = CARTESIAN_POINT ( 'NONE',  ( -25.00000000000000000, 0.000000000000000000, 2.499999999999927613 ) ) ;
#44 = VERTEX_POINT ( 'NONE', #874 ) ;
#45 = DIRECTION ( 'NONE',  ( 0.000000000000000000, 0.000000000000000000, 1.000000000000000000 ) ) ;
#46 = EDGE_LOOP ( 'NONE', ( #398, #311, #668, #547 ) ) ;
#47 = ORIENTED_EDGE ( 'NONE', *, *, #1141, .F. ) ;
#48 = CARTESIAN_POINT ( 'NONE',  ( -15.00000000000000355, 2.000000000000000000, 2.500000000000000444 ) ) ;
#49 = VECTOR ( 'NONE', #1231, 1000.000000000000114 ) ;
#50 = DIRECTION ( 'NONE',  ( 0.000000000000000000, 0.000000000000000000, 1.000000000000000000 ) ) ;
#51 = AXIS2_PLACEMENT_3D ( 'NONE', #971, #1179, #954 ) ;
#52 = CC_DESIGN_PERSON_AND_ORGANIZATION_ASSIGNMENT ( #841, #747, ( #630 ) ) ;
#53 = CARTESIAN_POINT ( 'NONE',  ( 0.000000000000000000, 75.00000000000000000, -2.500000000000000000 ) ) ;
#54 = LINE ( 'NONE', #931, #1192 ) ;
#55 = ORIENTED_EDGE ( 'NONE', *, *, #1187, .F. ) ;
#56 = DIRECTION ( 'NONE',  ( -0.000000000000000000, -1.000000000000000000, -0.000000000000000000 ) ) ;
#57 = ORIENTED_EDGE ( 'NONE', *, *, #998, .F. ) ;
#58 = PLANE ( 'NONE',  #1124 ) ;
#59 = DIRECTION ( 'NONE',  ( -1.734723475976807094E-15, 0.000000000000000000, 1.000000000000000000 ) ) ;
#60 = ORIENTED_EDGE ( 'NONE', *, *, #1217, .F. ) ;
#61 = CARTESIAN_POINT ( 'NONE',  ( -14.99999999999993072, 0.000000000000000000, -12.50000000000000178 ) ) ;
#62 = DIRECTION ( 'NONE',  ( -0.000000000000000000, -1.000000000000000000, -0.000000000000000000 ) ) ;
#63 = AXIS2_PLACEMENT_3D ( 'NONE', #877, #275, #979 ) ;
#64 = CONICAL_SURFACE ( 'NONE', #1023, 1.501370465245426278, 0.05235987755983000091 ) ;
#65 = LINE ( 'NONE', #1173, #1043 ) ;
#66 = ADVANCED_FACE ( 'NONE', ( #184 ), #160, .T. ) ;
#67 = VECTOR ( 'NONE', #827, 1000.000000000000000 ) ;
#68 = EDGE_LOOP ( 'NONE', ( #449, #186 ) ) ;
#69 = AXIS2_PLACEMENT_3D ( 'NONE', #1106, #1213, #232 ) ;
#70 = AXIS2_PLACEMENT_3D ( 'NONE', #1094, #518, #911 ) ;
#71 = CARTESIAN_POINT ( 'NONE',  ( 25.00000000000000000, 2.000000000000000000, -2.499999999999931166 ) ) ;
#72 = CARTESIAN_POINT ( 'NONE',  ( -11.00000000000000000, 65.00000000000000000, 0.000000000000000000 ) ) ;
#73 = EDGE_LOOP ( 'NONE', ( #135, #648, #829, #1080 ) ) ;
#74 = DIRECTION ( 'NONE',  ( -0.000000000000000000, -1.000000000000000000, -0.000000000000000000 ) ) ;
#75 = CARTESIAN_POINT ( 'NONE',  ( -11.00000000000000000, 82.00000000000000000, 0.000000000000000000 ) ) ;
#76 = EDGE_CURVE ( 'NONE', #387, #823, #598, .T. ) ;
#77 = ORIENTED_EDGE ( 'NONE', *, *, #758, .T. ) ;
#78 = EDGE_LOOP ( 'NONE', ( #1162, #166, #60, #685 ) ) ;
#79 = DIRECTION ( 'NONE',  ( 0.000000000000000000, 1.000000000000000000, 0.000000000000000000 ) ) ;
#80 = CYLINDRICAL_SURFACE ( 'NONE', #423, 9.000000000000001776 ) ;
#81 = VERTEX_POINT ( 'NONE', #1257 ) ;
#82 = CARTESIAN_POINT ( 'NONE',  ( 14.99999999999993072, 0.000000000000000000, -12.50000000000000178 ) ) ;
#83 = PLANE ( 'NONE',  #383 ) ;
#84 = CARTESIAN_POINT ( 'NONE',  ( -5.000000000000000000, 90.00000000000000000, -1.079365419737748910 ) ) ;
#85 = EDGE_LOOP ( 'NONE', ( #151, #309 ) ) ;
#86 = DIRECTION ( 'NONE',  ( -1.734723475976807094E-15, 0.000000000000000000, 1.000000000000000000 ) ) ;
#87 = PLANE ( 'NONE',  #254 ) ;
#88 = EDGE_CURVE ( 'NONE', #1060, #402, #427, .T. ) ;
#89 = VERTEX_POINT ( 'NONE', #191 ) ;
#90 = DIRECTION ( 'NONE',  ( 0.000000000000000000, 1.000000000000000000, 0.000000000000000000 ) ) ;
#91 = APPROVAL_PERSON_ORGANIZATION ( #641, #363, #1035 ) ;
#92 = DIRECTION ( 'NONE',  ( -0.000000000000000000, -1.000000000000000000, -0.000000000000000000 ) ) ;
#93 = CIRCLE ( 'NONE', #1144, 9.999999999999996447 ) ;
#94 = VECTOR ( 'NONE', #183, 1000.000000000000000 ) ;
#95 = DIRECTION ( 'NONE',  ( 0.000000000000000000, 0.000000000000000000, -1.000000000000000000 ) ) ;
#96 = CARTESIAN_POINT ( 'NONE',  ( -14.99999999999993072, 0.000000000000000000, -12.50000000000000178 ) ) ;
#97 = AXIS2_PLACEMENT_3D ( 'NONE', #486, #2, #403 ) ;
#98 = CC_DESIGN_PERSON_AND_ORGANIZATION_ASSIGNMENT ( #1262, #545, ( #154 ) ) ;
#99 = EDGE_LOOP ( 'NONE', ( #159, #1152, #643, #133, #22, #804, #674, #47 ) ) ;
#100 = DIRECTION ( 'NONE',  ( 0.000000000000000000, 1.000000000000000000, -0.000000000000000000 ) ) ;
#101 = DIRECTION ( 'NONE',  ( 0.000000000000000000, 0.000000000000000000, 1.000000000000000000 ) ) ;
#102 = DIRECTION ( 'NONE',  ( -0.000000000000000000, -1.000000000000000000, -0.000000000000000000 ) ) ;
#103 = ORIENTED_EDGE ( 'NONE', *, *, #1154, .T. ) ;
#104 = CARTESIAN_POINT ( 'NONE',  ( 5.000000000000000000, 81.94766404375705804, -1.501370465245425390 ) ) ;
#105 = DIRECTION ( 'NONE',  ( 0.000000000000000000, 1.000000000000000000, -0.000000000000000000 ) ) ;
#106 = SHAPE_DEFINITION_REPRESENTATION ( #540, #647 ) ;
#107 = DIRECTION ( 'NONE',  ( -1.000000000000000000, -0.000000000000000000, -0.000000000000000000 ) ) ;
#108 = ADVANCED_FACE ( 'NONE', ( #460 ), #563, .F. ) ;
#109 = VERTEX_POINT ( 'NONE', #295 ) ;
#110 = DIRECTION ( 'NONE',  ( 0.000000000000000000, 1.000000000000000000, -0.000000000000000000 ) ) ;
#111 = DIRECTION ( 'NONE',  ( 0.000000000000000000, -0.000000000000000000, -1.000000000000000000 ) ) ;
#112 = CALENDAR_DATE ( 2026, 1, 8 ) ;
#113 = ORIENTED_EDGE ( 'NONE', *, *, #206, .T. ) ;
#114 = DIRECTION ( 'NONE',  ( -0.000000000000000000, -1.000000000000000000, -0.000000000000000000 ) ) ;
#115 = EDGE_CURVE ( 'NONE', #535, #1056, #227, .T. ) ;
#116 = ORIENTED_EDGE ( 'NONE', *, *, #481, .T. ) ;
#117 = AXIS2_PLACEMENT_3D ( 'NONE', #552, #843, #942 ) ;
#118 = DATE_AND_TIME ( #312, #1019 ) ;
#119 = CIRCLE ( 'NONE', #633, 2.080737765735669598 ) ;
#120 = DIRECTION ( 'NONE',  ( 0.000000000000000000, 0.000000000000000000, 1.000000000000000000 ) ) ;
#121 = CIRCLE ( 'NONE', #97, 2.500000000000000000 ) ;
#122 = DIRECTION ( 'NONE',  ( -0.000000000000000000, -1.000000000000000000, -0.000000000000000000 ) ) ;
#123 = LINE ( 'NONE', #21, #12 ) ;
#124 = VERTEX_POINT ( 'NONE', #784 ) ;
#125 = EDGE_CURVE ( 'NONE', #692, #465, #778, .T. ) ;
#126 = CARTESIAN_POINT ( 'NONE',  ( 5.000000000000000000, 90.00000000000000000, 2.080737765735668710 ) ) ;
#127 = CARTESIAN_POINT ( 'NONE',  ( -10.99999999999999822, 82.00000000000000000, 9.000000000000001776 ) ) ;
#128 = ORIENTED_EDGE ( 'NONE', *, *, #430, .F. ) ;
#129 = CYLINDRICAL_SURFACE ( 'NONE', #636, 8.999999999999998224 ) ;
#130 = VERTEX_POINT ( 'NONE', #493 ) ;
#131 = EDGE_CURVE ( 'NONE', #465, #867, #204, .T. ) ;
#132 = CARTESIAN_POINT ( 'NONE',  ( -5.000000000000000000, 81.94766404375705804, -1.501370465245426278 ) ) ;
#133 = ORIENTED_EDGE ( 'NONE', *, *, #850, .F. ) ;
#134 = CARTESIAN_POINT ( 'NONE',  ( -14.99999999999993072, 0.000000000000000000, 12.49999999999999822 ) ) ;
#135 = ORIENTED_EDGE ( 'NONE', *, *, #76, .F. ) ;
#136 = ORIENTED_EDGE ( 'NONE', *, *, #1135, .F. ) ;
#137 = AXIS2_PLACEMENT_3D ( 'NONE', #606, #1079, #1176 ) ;
#138 = CARTESIAN_POINT ( 'NONE',  ( 25.00000000000000000, 2.000000000000000000, 2.499999999999927613 ) ) ;
#139 = AXIS2_PLACEMENT_3D ( 'NONE', #716, #984, #707 ) ;
#140 = ADVANCED_FACE ( 'NONE', ( #883 ), #849, .T. ) ;
#141 = VECTOR ( 'NONE', #742, 1000.000000000000000 ) ;
#142 = VERTEX_POINT ( 'NONE', #572 ) ;
#143 = LINE ( 'NONE', #236, #358 ) ;
#144 = DIRECTION ( 'NONE',  ( 0.000000000000000000, 0.000000000000000000, -1.000000000000000000 ) ) ;
#145 = ORIENTED_EDGE ( 'NONE', *, *, #389, .T. ) ;
#146 = DIRECTION ( 'NONE',  ( 0.000000000000000000, 1.000000000000000000, -0.000000000000000000 ) ) ;
#147 = CARTESIAN_POINT ( 'NONE',  ( -10.99999999999999822, 81.00000000000000000, 9.000000000000001776 ) ) ;
#148 = LINE ( 'NONE', #542, #833 ) ;
#149 = EDGE_CURVE ( 'NONE', #273, #393, #362, .T. ) ;
#150 = DIRECTION ( 'NONE',  ( 0.000000000000000000, 0.000000000000000000, 1.000000000000000000 ) ) ;
#151 = ORIENTED_EDGE ( 'NONE', *, *, #336, .F. ) ;
#152 = CARTESIAN_POINT ( 'NONE',  ( 11.00000000000000178, 81.00000000000000000, 8.999999999999998224 ) ) ;
#153 = COORDINATED_UNIVERSAL_TIME_OFFSET ( 5, 30, .AHEAD. ) ;
#154 = SECURITY_CLASSIFICATION ( '', '', #457 ) ;
#155 = CYLINDRICAL_SURFACE ( 'NONE', #1109, 10.00000000000000000 ) ;
#156 = CIRCLE ( 'NONE', #632, 1.551035433285119725 ) ;
#157 = FACE_OUTER_BOUND ( 'NONE', #237, .T. ) ;
#158 = VECTOR ( 'NONE', #30, 1000.000000000000114 ) ;
#159 = ORIENTED_EDGE ( 'NONE', *, *, #814, .F. ) ;
#160 = CONICAL_SURFACE ( 'NONE', #446, 2.500000000000000000, 0.05235987755983000091 ) ;
#161 = VERTEX_POINT ( 'NONE', #84 ) ;
#162 = LINE ( 'NONE', #555, #468 ) ;
#163 = EDGE_CURVE ( 'NONE', #682, #192, #244, .T. ) ;
#164 = FACE_BOUND ( 'NONE', #1206, .T. ) ;
#165 = CYLINDRICAL_SURFACE ( 'NONE', #1111, 10.00000000000000000 ) ;
#166 = ORIENTED_EDGE ( 'NONE', *, *, #397, .F. ) ;
#167 = DIRECTION ( 'NONE',  ( 0.000000000000000000, 1.000000000000000000, -0.000000000000000000 ) ) ;
#168 = EDGE_CURVE ( 'NONE', #564, #20, #65, .T. ) ;
#169 = LINE ( 'NONE', #1143, #531 ) ;
#170 = DIRECTION ( 'NONE',  ( 0.000000000000000000, 1.000000000000000000, -0.000000000000000000 ) ) ;
#171 = EDGE_LOOP ( 'NONE', ( #760, #719, #1236, #933 ) ) ;
#172 = DIRECTION ( 'NONE',  ( -1.734723475976807094E-15, 0.000000000000000000, 1.000000000000000000 ) ) ;
#173 = ORIENTED_EDGE ( 'NONE', *, *, #444, .T. ) ;
#174 = DIRECTION ( 'NONE',  ( 0.000000000000000000, 1.000000000000000000, 0.000000000000000000 ) ) ;
#175 = AXIS2_PLACEMENT_3D ( 'NONE', #1078, #591, #876 ) ;
#176 = DIRECTION ( 'NONE',  ( 0.000000000000000000, 1.000000000000000000, -0.000000000000000000 ) ) ;
#177 = ADVANCED_FACE ( 'NONE', ( #687 ), #165, .T. ) ;
#178 = ORIENTED_EDGE ( 'NONE', *, *, #512, .F. ) ;
#179 = ORIENTED_EDGE ( 'NONE', *, *, #315, .T. ) ;
#180 = VECTOR ( 'NONE', #638, 1000.000000000000000 ) ;
#181 =( LENGTH_UNIT ( ) NAMED_UNIT ( * ) SI_UNIT ( .MILLI., .METRE. ) );
#182 = VERTEX_POINT ( 'NONE', #469 ) ;
#183 = DIRECTION ( 'NONE',  ( -0.000000000000000000, -1.000000000000000000, -0.000000000000000000 ) ) ;
#184 = FACE_OUTER_BOUND ( 'NONE', #884, .T. ) ;
#185 = EDGE_CURVE ( 'NONE', #142, #963, #327, .T. ) ;
#186 = ORIENTED_EDGE ( 'NONE', *, *, #1187, .T. ) ;
#187 = LINE ( 'NONE', #885, #597 ) ;
#188 = ORIENTED_EDGE ( 'NONE', *, *, #481, .F. ) ;
#189 = LINE ( 'NONE', #381, #511 ) ;
#190 = CARTESIAN_POINT ( 'NONE',  ( -14.99999999999993072, 2.000000000000000000, -12.50000000000000178 ) ) ;
#191 = CARTESIAN_POINT ( 'NONE',  ( -1.317541634481457224, 15.00000000000000000, 2.500000000000000000 ) ) ;
#192 = VERTEX_POINT ( 'NONE', #1059 ) ;
#193 = DIRECTION ( 'NONE',  ( 0.000000000000000000, 0.000000000000000000, -1.000000000000000000 ) ) ;
#194 = ORIENTED_EDGE ( 'NONE', *, *, #1141, .T. ) ;
#195 = LINE ( 'NONE', #104, #655 ) ;
#196 = CARTESIAN_POINT ( 'NONE',  ( 25.00000000000000000, 2.000000000000000000, 2.499999999999927613 ) ) ;
#197 = CARTESIAN_POINT ( 'NONE',  ( -25.00000000000000000, 0.000000000000000000, 2.499999999999927613 ) ) ;
#198 = ORGANIZATION ( 'UNSPECIFIED', 'UNSPECIFIED', '' ) ;
#199 = AXIS2_PLACEMENT_3D ( 'NONE', #556, #1057, #970 ) ;
#200 = AXIS2_PLACEMENT_3D ( 'NONE', #587, #1193, #211 ) ;
#201 = CARTESIAN_POINT ( 'NONE',  ( -1.317541634481457224, 25.00000000000000000, -2.500000000000000000 ) ) ;
#202 = ORIENTED_EDGE ( 'NONE', *, *, #1209, .F. ) ;
#203 = APPROVAL_STATUS ( 'not_yet_approved' ) ;
#204 = CIRCLE ( 'NONE', #925, 9.999999999999996447 ) ;
#205 = ORIENTED_EDGE ( 'NONE', *, *, #850, .T. ) ;
#206 = EDGE_CURVE ( 'NONE', #852, #930, #1216, .T. ) ;
#207 = CARTESIAN_POINT ( 'NONE',  ( -11.00000000000000000, 2.000000000000000000, 0.000000000000000000 ) ) ;
#208 = FACE_OUTER_BOUND ( 'NONE', #317, .T. ) ;
#209 = CARTESIAN_POINT ( 'NONE',  ( 5.000000000000000000, 81.00000000000000000, 1.551035433285119503 ) ) ;
#210 = DIRECTION ( 'NONE',  ( 0.000000000000000000, -1.000000000000000000, 0.000000000000000000 ) ) ;
#211 = DIRECTION ( 'NONE',  ( 0.000000000000000000, 0.000000000000000000, -1.000000000000000000 ) ) ;
#212 = DIRECTION ( 'NONE',  ( -0.000000000000000000, -1.000000000000000000, -0.000000000000000000 ) ) ;
#213 = EDGE_CURVE ( 'NONE', #437, #1197, #121, .T. ) ;
#214 = DIRECTION ( 'NONE',  ( -1.734723475976807094E-15, 0.000000000000000000, 1.000000000000000000 ) ) ;
#215 = VERTEX_POINT ( 'NONE', #805 ) ;
#216 = DATE_AND_TIME ( #1100, #529 ) ;
#217 = CARTESIAN_POINT ( 'NONE',  ( -14.99999999999993072, 0.000000000000000000, 12.49999999999999822 ) ) ;
#218 = LINE ( 'NONE', #196, #718 ) ;
#219 = APPROVAL_DATE_TIME ( #508, #363 ) ;
#220 = CARTESIAN_POINT ( 'NONE',  ( -14.99999999999993072, 2.000000000000000000, 12.49999999999999822 ) ) ;
#221 = ADVANCED_FACE ( 'NONE', ( #608 ), #997, .T. ) ;
#222 = ADVANCED_FACE ( 'NONE', ( #208 ), #985, .F. ) ;
#223 = CIRCLE ( 'NONE', #937, 2.499999999999999112 ) ;
#224 = VERTEX_POINT ( 'NONE', #523 ) ;
#225 = CIRCLE ( 'NONE', #69, 1.079365419737748910 ) ;
#226 = FACE_OUTER_BOUND ( 'NONE', #1220, .T. ) ;
#227 = CIRCLE ( 'NONE', #513, 10.00000000000000000 ) ;
#228 = CARTESIAN_POINT ( 'NONE',  ( 15.00000000000000355, 0.000000000000000000, -2.500000000000003997 ) ) ;
#229 = ORIENTED_EDGE ( 'NONE', *, *, #115, .T. ) ;
#230 = CARTESIAN_POINT ( 'NONE',  ( -1.317541634481457224, 75.00000000000000000, 2.500000000000000000 ) ) ;
#231 = ADVANCED_FACE ( 'NONE', ( #799, #621 ), #603, .F. ) ;
#232 = DIRECTION ( 'NONE',  ( 0.000000000000000000, 0.000000000000000000, 1.000000000000000000 ) ) ;
#233 = VERTEX_POINT ( 'NONE', #813 ) ;
#234 = LINE ( 'NONE', #1239, #1145 ) ;
#235 = PLANE ( 'NONE',  #532 ) ;
#236 = CARTESIAN_POINT ( 'NONE',  ( -10.99999999999999822, 82.00000000000000000, 10.00000000000000000 ) ) ;
#237 = EDGE_LOOP ( 'NONE', ( #259, #27, #714, #1050 ) ) ;
#238 = EDGE_LOOP ( 'NONE', ( #943, #267, #1265, #1133 ) ) ;
#239 = LOCAL_TIME ( 6, 12, 47.00000000000000000, #667 ) ;
#240 = DIRECTION ( 'NONE',  ( -0.000000000000000000, -0.000000000000000000, 1.000000000000000000 ) ) ;
#241 = AXIS2_PLACEMENT_3D ( 'NONE', #1030, #934, #665 ) ;
#242 = EDGE_CURVE ( 'NONE', #989, #781, #1215, .T. ) ;
#243 = DIRECTION ( 'NONE',  ( 0.000000000000000000, 0.000000000000000000, 1.000000000000000000 ) ) ;
#244 = CIRCLE ( 'NONE', #1234, 9.999999999999996447 ) ;
#245 = VERTEX_POINT ( 'NONE', #889 ) ;
#246 = DIRECTION ( 'NONE',  ( 0.000000000000000000, 1.000000000000000000, 0.000000000000000000 ) ) ;
#247 = DIRECTION ( 'NONE',  ( -0.000000000000000000, -1.000000000000000000, -0.000000000000000000 ) ) ;
#248 = EDGE_CURVE ( 'NONE', #130, #124, #800, .T. ) ;
#249 = ORIENTED_EDGE ( 'NONE', *, *, #810, .T. ) ;
#250 = DIRECTION ( 'NONE',  ( -0.000000000000000000, -1.000000000000000000, -0.000000000000000000 ) ) ;
#251 = CARTESIAN_POINT ( 'NONE',  ( 5.000000000000000000, 82.00000000000000000, 0.000000000000000000 ) ) ;
#252 = CARTESIAN_POINT ( 'NONE',  ( -11.00000000000000000, 75.00000000000000000, 0.000000000000000000 ) ) ;
#253 = EDGE_CURVE ( 'NONE', #370, #1060, #992, .T. ) ;
#254 = AXIS2_PLACEMENT_3D ( 'NONE', #487, #210, #1063 ) ;
#255 = FACE_OUTER_BOUND ( 'NONE', #539, .T. ) ;
#256 = AXIS2_PLACEMENT_3D ( 'NONE', #448, #935, #1125 ) ;
#257 = LINE ( 'NONE', #657, #549 ) ;
#258 = CIRCLE ( 'NONE', #634, 1.551035433285119725 ) ;
#259 = ORIENTED_EDGE ( 'NONE', *, *, #131, .T. ) ;
#260 = VECTOR ( 'NONE', #717, 1000.000000000000114 ) ;
#261 = ORIENTED_EDGE ( 'NONE', *, *, #163, .F. ) ;
#262 = EDGE_CURVE ( 'NONE', #846, #320, #1148, .T. ) ;
#263 = DIRECTION ( 'NONE',  ( 0.000000000000000000, 0.000000000000000000, 1.000000000000000000 ) ) ;
#264 = ORIENTED_EDGE ( 'NONE', *, *, #185, .F. ) ;
#265 = FACE_OUTER_BOUND ( 'NONE', #554, .T. ) ;
#266 = DIRECTION ( 'NONE',  ( -1.000000000000000000, 0.000000000000000000, -0.000000000000000000 ) ) ;
#267 = ORIENTED_EDGE ( 'NONE', *, *, #1058, .T. ) ;
#268 = PLANE ( 'NONE',  #920 ) ;
#269 = EDGE_LOOP ( 'NONE', ( #729, #202, #332, #601 ) ) ;
#270 = EDGE_CURVE ( 'NONE', #89, #867, #901, .T. ) ;
#271 = CARTESIAN_POINT ( 'NONE',  ( -1.317541634481457224, 25.00000000000000000, 2.500000000000000000 ) ) ;
#272 = DIRECTION ( 'NONE',  ( 0.000000000000000000, 1.000000000000000000, -0.000000000000000000 ) ) ;
#273 = VERTEX_POINT ( 'NONE', #197 ) ;
#274 = ORIENTED_EDGE ( 'NONE', *, *, #489, .F. ) ;
#275 = DIRECTION ( 'NONE',  ( 0.000000000000000000, 0.000000000000000000, 1.000000000000000000 ) ) ;
#276 = ORIENTED_EDGE ( 'NONE', *, *, #826, .F. ) ;
#277 = DIRECTION ( 'NONE',  ( 0.000000000000000000, 1.000000000000000000, -0.000000000000000000 ) ) ;
#278 = AXIS2_PLACEMENT_3D ( 'NONE', #1051, #277, #467 ) ;
#279 = CARTESIAN_POINT ( 'NONE',  ( -11.00000000000000000, 82.00000000000000000, 0.000000000000000000 ) ) ;
#280 = CONICAL_SURFACE ( 'NONE', #569, 1.501370465245425390, 0.05235987755983000091 ) ;
#281 = ORIENTED_EDGE ( 'NONE', *, *, #242, .T. ) ;
#282 = VECTOR ( 'NONE', #107, 1000.000000000000000 ) ;
#283 = ORIENTED_EDGE ( 'NONE', *, *, #355, .T. ) ;
#284 = DIRECTION ( 'NONE',  ( 0.000000000000000000, 1.000000000000000000, -0.000000000000000000 ) ) ;
#285 =( NAMED_UNIT ( * ) SI_UNIT ( $, .STERADIAN. ) SOLID_ANGLE_UNIT ( ) );
#286 = EDGE_LOOP ( 'NONE', ( #128, #893, #586, #553 ) ) ;
#287 = CARTESIAN_POINT ( 'NONE',  ( -5.000000000000000000, 90.00000000000000000, 0.000000000000000000 ) ) ;
#288 = CARTESIAN_POINT ( 'NONE',  ( -11.00000000000000000, 82.00000000000000000, -9.000000000000001776 ) ) ;
#289 = EDGE_LOOP ( 'NONE', ( #1204, #864 ) ) ;
#290 = DIRECTION ( 'NONE',  ( 0.000000000000000000, 0.000000000000000000, -1.000000000000000000 ) ) ;
#291 = APPROVAL ( #710, 'UNSPECIFIED' ) ;
#292 = VERTEX_POINT ( 'NONE', #894 ) ;
#293 = PERSON ( 'UNSPECIFIED', 'UNSPECIFIED', 'UNSPECIFIED', ('UNSPECIFIED'), ('UNSPECIFIED'), ('UNSPECIFIED') ) ;
#294 = FACE_OUTER_BOUND ( 'NONE', #99, .T. ) ;
#295 = CARTESIAN_POINT ( 'NONE',  ( -5.000000000000000000, 81.00000000000000000, 1.551035433285120391 ) ) ;
#296 = ORIENTED_EDGE ( 'NONE', *, *, #548, .T. ) ;
#297 = ORIENTED_EDGE ( 'NONE', *, *, #506, .F. ) ;
#298 = DIRECTION ( 'NONE',  ( 1.000000000000000000, 0.000000000000000000, 0.000000000000000000 ) ) ;
#299 = DIRECTION ( 'NONE',  ( 0.000000000000000000, 1.000000000000000000, -0.000000000000000000 ) ) ;
#300 = CARTESIAN_POINT ( 'NONE',  ( 5.000000000000000000, 81.94766404375705804, 1.501370465245425390 ) ) ;
#301 = CIRCLE ( 'NONE', #4, 2.080737765735668710 ) ;
#302 = ORIENTED_EDGE ( 'NONE', *, *, #680, .F. ) ;
#303 = CIRCLE ( 'NONE', #797, 9.999999999999998224 ) ;
#304 = CIRCLE ( 'NONE', #1274, 1.079365419737748022 ) ;
#305 = ORIENTED_EDGE ( 'NONE', *, *, #489, .T. ) ;
#306 = DIRECTION ( 'NONE',  ( 1.000000000000000000, -0.000000000000000000, 0.000000000000000000 ) ) ;
#307 = EDGE_CURVE ( 'NONE', #182, #292, #702, .T. ) ;
#308 = CARTESIAN_POINT ( 'NONE',  ( -1.317541634481457224, 75.00000000000000000, 2.500000000000000000 ) ) ;
#309 = ORIENTED_EDGE ( 'NONE', *, *, #213, .F. ) ;
#310 = DIRECTION ( 'NONE',  ( 0.000000000000000000, 1.000000000000000000, 0.000000000000000000 ) ) ;
#311 = ORIENTED_EDGE ( 'NONE', *, *, #695, .T. ) ;
#312 = CALENDAR_DATE ( 2026, 1, 8 ) ;
#313 = ADVANCED_FACE ( 'NONE', ( #413 ), #129, .F. ) ;
#314 = CARTESIAN_POINT ( 'NONE',  ( 1.317541634481460555, 75.00000000000000000, 2.500000000000000000 ) ) ;
#315 = EDGE_CURVE ( 'NONE', #215, #936, #396, .T. ) ;
#316 = LINE ( 'NONE', #220, #346 ) ;
#317 = EDGE_LOOP ( 'NONE', ( #698, #415, #297, #910 ) ) ;
#318 = DIRECTION ( 'NONE',  ( 0.000000000000000000, 0.000000000000000000, -1.000000000000000000 ) ) ;
#319 = CARTESIAN_POINT ( 'NONE',  ( -1.317541634481457224, 15.00000000000000000, -2.500000000000000000 ) ) ;
#320 = VERTEX_POINT ( 'NONE', #230 ) ;
#321 = DIRECTION ( 'NONE',  ( 0.000000000000000000, 0.000000000000000000, 1.000000000000000000 ) ) ;
#322 = ADVANCED_FACE ( 'NONE', ( #789 ), #700, .F. ) ;
#323 = CONICAL_SURFACE ( 'NONE', #137, 2.499999999999999112, 0.05235987755983000091 ) ;
#324 = AXIS2_PLACEMENT_3D ( 'NONE', #897, #418, #19 ) ;
#325 = VECTOR ( 'NONE', #298, 1000.000000000000000 ) ;
#326 = CARTESIAN_POINT ( 'NONE',  ( -11.00000000000000000, 0.000000000000000000, -9.000000000000001776 ) ) ;
#327 = CIRCLE ( 'NONE', #1128, 9.000000000000001776 ) ;
#328 = CARTESIAN_POINT ( 'NONE',  ( 11.00000000000000000, 2.000000000000000000, 0.000000000000000000 ) ) ;
#329 = ORIENTED_EDGE ( 'NONE', *, *, #1238, .T. ) ;
#330 = DATE_AND_TIME ( #525, #651 ) ;
#331 = CARTESIAN_POINT ( 'NONE',  ( -25.00000000000000000, 2.000000000000000000, 2.499999999999927613 ) ) ;
#332 = ORIENTED_EDGE ( 'NONE', *, *, #982, .F. ) ;
#333 = LINE ( 'NONE', #1114, #49 ) ;
#334 = ORIENTED_EDGE ( 'NONE', *, *, #88, .F. ) ;
#335 = ORIENTED_EDGE ( 'NONE', *, *, #1174, .T. ) ;
#336 = EDGE_CURVE ( 'NONE', #1197, #437, #574, .T. ) ;
#337 = LINE ( 'NONE', #918, #67 ) ;
#338 = DIRECTION ( 'NONE',  ( 0.000000000000000000, 1.000000000000000000, -0.000000000000000000 ) ) ;
#339 = CYLINDRICAL_SURFACE ( 'NONE', #722, 8.999999999999998224 ) ;
#340 = EDGE_CURVE ( 'NONE', #564, #393, #316, .T. ) ;
#341 = DIRECTION ( 'NONE',  ( -6.409306129323724811E-18, -0.9986295347545739443, -0.05233595624294395260 ) ) ;
#342 = CIRCLE ( 'NONE', #565, 1.551035433285120613 ) ;
#343 = AXIS2_PLACEMENT_3D ( 'NONE', #650, #845, #36 ) ;
#344 = ORIENTED_EDGE ( 'NONE', *, *, #862, .T. ) ;
#345 = DIRECTION ( 'NONE',  ( -0.000000000000000000, -1.000000000000000000, -0.000000000000000000 ) ) ;
#346 = VECTOR ( 'NONE', #1005, 1000.000000000000000 ) ;
#347 = ORIENTED_EDGE ( 'NONE', *, *, #890, .T. ) ;
#348 = DIRECTION ( 'NONE',  ( 0.000000000000000000, 1.000000000000000000, -0.000000000000000000 ) ) ;
#349 = DIRECTION ( 'NONE',  ( 0.000000000000000000, 1.000000000000000000, 0.000000000000000000 ) ) ;
#350 = EDGE_CURVE ( 'NONE', #1047, #433, #123, .T. ) ;
#351 = FACE_OUTER_BOUND ( 'NONE', #78, .T. ) ;
#352 = ORIENTED_EDGE ( 'NONE', *, *, #677, .F. ) ;
#353 = CARTESIAN_POINT ( 'NONE',  ( 25.00000000000000000, 2.000000000000000000, 2.499999999999930278 ) ) ;
#354 = DIRECTION ( 'NONE',  ( -0.000000000000000000, -1.000000000000000000, -0.000000000000000000 ) ) ;
#355 = EDGE_CURVE ( 'NONE', #1259, #431, #1129, .T. ) ;
#356 = EDGE_LOOP ( 'NONE', ( #740, #842 ) ) ;
#357 = CARTESIAN_POINT ( 'NONE',  ( 11.00000000000000000, 82.00000000000000000, 0.000000000000000000 ) ) ;
#358 = VECTOR ( 'NONE', #247, 1000.000000000000000 ) ;
#359 = CARTESIAN_POINT ( 'NONE',  ( -10.99999999999999822, 2.000000000000000000, 10.00000000000000000 ) ) ;
#360 = AXIS2_PLACEMENT_3D ( 'NONE', #1223, #1014, #318 ) ;
#361 = DIRECTION ( 'NONE',  ( 0.000000000000000000, 0.000000000000000000, -1.000000000000000000 ) ) ;
#362 = CIRCLE ( 'NONE', #51, 9.999999999999998224 ) ;
#363 = APPROVAL ( #940, 'UNSPECIFIED' ) ;
#364 = ORIENTED_EDGE ( 'NONE', *, *, #820, .T. ) ;
#365 = FACE_BOUND ( 'NONE', #46, .T. ) ;
#366 = ORIENTED_EDGE ( 'NONE', *, *, #444, .F. ) ;
#367 = DIRECTION ( 'NONE',  ( 0.000000000000000000, 1.000000000000000000, 0.000000000000000000 ) ) ;
#368 = CARTESIAN_POINT ( 'NONE',  ( 0.000000000000000000, 75.00000000000000000, -2.500000000000000000 ) ) ;
#369 = EDGE_LOOP ( 'NONE', ( #302, #696, #440, #264 ) ) ;
#370 = VERTEX_POINT ( 'NONE', #824 ) ;
#371 = DIRECTION ( 'NONE',  ( -0.000000000000000000, -1.000000000000000000, 0.000000000000000000 ) ) ;
#372 = EDGE_CURVE ( 'NONE', #560, #245, #515, .T. ) ;
#373 = ORIENTED_EDGE ( 'NONE', *, *, #451, .F. ) ;
#374 = DIRECTION ( 'NONE',  ( -0.000000000000000000, -1.000000000000000000, -0.000000000000000000 ) ) ;
#375 = CARTESIAN_POINT ( 'NONE',  ( 0.000000000000000000, 15.00000000000000000, -2.500000000000000000 ) ) ;
#376 = ORIENTED_EDGE ( 'NONE', *, *, #1058, .F. ) ;
#377 = DIRECTION ( 'NONE',  ( 0.000000000000000000, 0.000000000000000000, 1.000000000000000000 ) ) ;
#378 = FACE_OUTER_BOUND ( 'NONE', #773, .T. ) ;
#379 = CC_DESIGN_DATE_AND_TIME_ASSIGNMENT ( #330, #533, ( #154 ) ) ;
#380 = EDGE_LOOP ( 'NONE', ( #825, #366 ) ) ;
#381 = CARTESIAN_POINT ( 'NONE',  ( -1.317541634481457224, 75.00000000000000000, -2.500000000000000000 ) ) ;
#382 = LINE ( 'NONE', #1046, #614 ) ;
#383 = AXIS2_PLACEMENT_3D ( 'NONE', #686, #996, #620 ) ;
#384 = DIRECTION ( 'NONE',  ( 0.000000000000000000, 0.000000000000000000, -1.000000000000000000 ) ) ;
#385 = AXIS2_PLACEMENT_3D ( 'NONE', #207, #602, #990 ) ;
#386 = CLOSED_SHELL ( 'NONE', ( #688, #1249, #313, #222, #1270, #1077, #1068, #1103, #177, #904, #520, #622, #645, #801, #807, #1028, #991, #1267, #749, #1098, #562, #1201, #66, #907, #499, #592, #932, #231, #34, #108, #436, #767, #221, #322, #600, #441, #5, #140, #543, #966 ) ) ;
#387 = VERTEX_POINT ( 'NONE', #1016 ) ;
#388 = DIRECTION ( 'NONE',  ( 0.000000000000000000, 1.000000000000000000, 0.000000000000000000 ) ) ;
#389 = EDGE_CURVE ( 'NONE', #233, #989, #1235, .T. ) ;
#390 = ORIENTED_EDGE ( 'NONE', *, *, #262, .T. ) ;
#391 = CARTESIAN_POINT ( 'NONE',  ( -1.317541634481457224, 25.00000000000000000, 2.500000000000000000 ) ) ;
#392 = PERSON_AND_ORGANIZATION ( #293, #198 ) ;
#393 = VERTEX_POINT ( 'NONE', #134 ) ;
#394 = LINE ( 'NONE', #217, #325 ) ;
#395 = LINE ( 'NONE', #308, #1273 ) ;
#396 = LINE ( 'NONE', #1186, #1196 ) ;
#397 = EDGE_CURVE ( 'NONE', #763, #433, #921, .T. ) ;
#398 = ORIENTED_EDGE ( 'NONE', *, *, #637, .F. ) ;
#399 = DIRECTION ( 'NONE',  ( -0.000000000000000000, -1.000000000000000000, -0.000000000000000000 ) ) ;
#400 = DIRECTION ( 'NONE',  ( 0.000000000000000000, 0.000000000000000000, 1.000000000000000000 ) ) ;
#401 = FACE_BOUND ( 'NONE', #640, .T. ) ;
#402 = VERTEX_POINT ( 'NONE', #536 ) ;
#403 = DIRECTION ( 'NONE',  ( 0.000000000000000000, 0.000000000000000000, 1.000000000000000000 ) ) ;
#404 = CC_DESIGN_APPROVAL ( #291, ( #630 ) ) ;
#405 = VECTOR ( 'NONE', #354, 1000.000000000000000 ) ;
#406 = AXIS2_PLACEMENT_3D ( 'NONE', #975, #490, #1178 ) ;
#407 = AXIS2_PLACEMENT_3D ( 'NONE', #914, #114, #26 ) ;
#408 = ORIENTED_EDGE ( 'NONE', *, *, #1132, .F. ) ;
#409 = AXIS2_PLACEMENT_3D ( 'NONE', #1110, #338, #927 ) ;
#410 = EDGE_CURVE ( 'NONE', #659, #703, #744, .T. ) ;
#411 = DIRECTION ( 'NONE',  ( 0.000000000000000000, 1.000000000000000000, 0.000000000000000000 ) ) ;
#412 = DIRECTION ( 'NONE',  ( -0.000000000000000000, -1.000000000000000000, -0.000000000000000000 ) ) ;
#413 = FACE_OUTER_BOUND ( 'NONE', #1140, .T. ) ;
#414 = ORIENTED_EDGE ( 'NONE', *, *, #998, .T. ) ;
#415 = ORIENTED_EDGE ( 'NONE', *, *, #834, .T. ) ;
#416 = COORDINATED_UNIVERSAL_TIME_OFFSET ( 5, 30, .AHEAD. ) ;
#417 = CARTESIAN_POINT ( 'NONE',  ( 1.317541634481460555, 75.00000000000000000, -2.500000000000000000 ) ) ;
#418 = DIRECTION ( 'NONE',  ( -0.000000000000000000, -1.000000000000000000, -0.000000000000000000 ) ) ;
#419 = CARTESIAN_POINT ( 'NONE',  ( 0.000000000000000000, 25.00000000000000000, -2.500000000000000000 ) ) ;
#420 = CARTESIAN_POINT ( 'NONE',  ( 5.000000000000000000, 81.94766404375705804, 0.000000000000000000 ) ) ;
#421 = ORIENTED_EDGE ( 'NONE', *, *, #834, .F. ) ;
#422 = CARTESIAN_POINT ( 'NONE',  ( 0.000000000000000000, 81.00000000000000000, 0.000000000000000000 ) ) ;
#423 = AXIS2_PLACEMENT_3D ( 'NONE', #988, #102, #869 ) ;
#424 = AXIS2_PLACEMENT_3D ( 'NONE', #498, #105, #888 ) ;
#425 = AXIS2_PLACEMENT_3D ( 'NONE', #48, #1036, #443 ) ;
#426 = LINE ( 'NONE', #1010, #158 ) ;
#427 = CIRCLE ( 'NONE', #777, 9.999999999999998224 ) ;
#428 = EDGE_LOOP ( 'NONE', ( #1120, #1250 ) ) ;
#429 = PLANE ( 'NONE',  #922 ) ;
#430 = EDGE_CURVE ( 'NONE', #682, #124, #1139, .T. ) ;
#431 = VERTEX_POINT ( 'NONE', #152 ) ;
#432 = DIRECTION ( 'NONE',  ( -6.409306129323724811E-18, -0.9986295347545739443, -0.05233595624294395260 ) ) ;
#433 = VERTEX_POINT ( 'NONE', #546 ) ;
#434 = FACE_OUTER_BOUND ( 'NONE', #479, .T. ) ;
#435 = ORIENTED_EDGE ( 'NONE', *, *, #583, .F. ) ;
#436 = ADVANCED_FACE ( 'NONE', ( #33, #732 ), #429, .F. ) ;
#437 = VERTEX_POINT ( 'NONE', #1038 ) ;
#438 = CARTESIAN_POINT ( 'NONE',  ( -11.00000000000000000, 2.000000000000000000, -10.00000000000000000 ) ) ;
#439 = DIRECTION ( 'NONE',  ( -0.000000000000000000, -1.000000000000000000, -0.000000000000000000 ) ) ;
#440 = ORIENTED_EDGE ( 'NONE', *, *, #627, .T. ) ;
#441 = ADVANCED_FACE ( 'NONE', ( #157 ), #528, .F. ) ;
#442 = AXIS2_PLACEMENT_3D ( 'NONE', #1066, #174, #1156 ) ;
#443 = DIRECTION ( 'NONE',  ( 0.000000000000000000, 0.000000000000000000, -1.000000000000000000 ) ) ;
#444 = EDGE_CURVE ( 'NONE', #431, #1259, #673, .T. ) ;
#445 = CIRCLE ( 'NONE', #385, 10.00000000000000000 ) ;
#446 = AXIS2_PLACEMENT_3D ( 'NONE', #557, #977, #1247 ) ;
#447 = ORIENTED_EDGE ( 'NONE', *, *, #666, .T. ) ;
#448 = CARTESIAN_POINT ( 'NONE',  ( 11.00000000000000000, 81.00000000000000000, 0.000000000000000000 ) ) ;
#449 = ORIENTED_EDGE ( 'NONE', *, *, #583, .T. ) ;
#450 = DIRECTION ( 'NONE',  ( -0.000000000000000000, -1.000000000000000000, -0.000000000000000000 ) ) ;
#451 = EDGE_CURVE ( 'NONE', #1017, #245, #54, .T. ) ;
#452 = ORIENTED_EDGE ( 'NONE', *, *, #430, .T. ) ;
#453 = CARTESIAN_POINT ( 'NONE',  ( 11.00000000000000178, 82.00000000000000000, 9.999999999999996447 ) ) ;
#454 = EDGE_LOOP ( 'NONE', ( #495, #408 ) ) ;
#455 = VERTEX_POINT ( 'NONE', #147 ) ;
#456 = CARTESIAN_POINT ( 'NONE',  ( -5.000000000000000000, 81.00000000000000000, 0.000000000000000000 ) ) ;
#457 = SECURITY_CLASSIFICATION_LEVEL ( 'unclassified' ) ;
#458 = DIRECTION ( 'NONE',  ( 0.000000000000000000, 1.000000000000000000, -0.000000000000000000 ) ) ;
#459 = PRODUCT_DEFINITION ( 'UNKNOWN', '', #630, #765 ) ;
#460 = FACE_OUTER_BOUND ( 'NONE', #369, .T. ) ;
#461 = VERTEX_POINT ( 'NONE', #1242 ) ;
#462 = CYLINDRICAL_SURFACE ( 'NONE', #1147, 9.999999999999996447 ) ;
#463 = CIRCLE ( 'NONE', #492, 9.999999999999998224 ) ;
#464 = PERSON_AND_ORGANIZATION ( #293, #198 ) ;
#465 = VERTEX_POINT ( 'NONE', #725 ) ;
#466 = AXIS2_PLACEMENT_3D ( 'NONE', #1221, #345, #644 ) ;
#467 = DIRECTION ( 'NONE',  ( 0.000000000000000000, 0.000000000000000000, 1.000000000000000000 ) ) ;
#468 = VECTOR ( 'NONE', #450, 1000.000000000000000 ) ;
#469 = CARTESIAN_POINT ( 'NONE',  ( -11.00000000000000000, 82.00000000000000000, -10.00000000000000000 ) ) ;
#470 = AXIS2_PLACEMENT_3D ( 'NONE', #328, #613, #1282 ) ;
#471 = EDGE_CURVE ( 'NONE', #292, #535, #143, .T. ) ;
#472 = EDGE_LOOP ( 'NONE', ( #1210, #861, #1254, #414 ) ) ;
#473 = DIRECTION ( 'NONE',  ( 0.000000000000000000, 0.000000000000000000, -1.000000000000000000 ) ) ;
#474 = CARTESIAN_POINT ( 'NONE',  ( 0.000000000000000000, 82.00000000000000000, 0.000000000000000000 ) ) ;
#475 = ORIENTED_EDGE ( 'NONE', *, *, #372, .F. ) ;
#476 = CARTESIAN_POINT ( 'NONE',  ( 0.000000000000000000, 25.00000000000000000, 0.000000000000000000 ) ) ;
#477 = ORIENTED_EDGE ( 'NONE', *, *, #1229, .T. ) ;
#478 = CARTESIAN_POINT ( 'NONE',  ( -5.000000000000000000, 90.00000000000000000, 0.000000000000000000 ) ) ;
#479 = EDGE_LOOP ( 'NONE', ( #1, #435, #757, #1104 ) ) ;
#480 = ORIENTED_EDGE ( 'NONE', *, *, #1161, .F. ) ;
#481 = EDGE_CURVE ( 'NONE', #20, #658, #541, .T. ) ;
#482 = DIRECTION ( 'NONE',  ( -0.000000000000000000, -1.000000000000000000, -0.000000000000000000 ) ) ;
#483 = EDGE_LOOP ( 'NONE', ( #194, #972, #1269, #1090 ) ) ;
#484 = FACE_OUTER_BOUND ( 'NONE', #289, .T. ) ;
#485 = PLANE ( 'NONE',  #278 ) ;
#486 = CARTESIAN_POINT ( 'NONE',  ( -5.000000000000000000, 82.00000000000000000, 0.000000000000000000 ) ) ;
#487 = CARTESIAN_POINT ( 'NONE',  ( 15.00000000000000355, 2.000000000000000000, -2.500000000000003997 ) ) ;
#488 = ORIENTED_EDGE ( 'NONE', *, *, #1229, .F. ) ;
#489 = EDGE_CURVE ( 'NONE', #224, #437, #333, .T. ) ;
#490 = DIRECTION ( 'NONE',  ( 0.000000000000000000, 1.000000000000000000, 0.000000000000000000 ) ) ;
#491 = CARTESIAN_POINT ( 'NONE',  ( -15.00000000000000355, 2.000000000000000000, -2.500000000000003997 ) ) ;
#492 = AXIS2_PLACEMENT_3D ( 'NONE', #502, #892, #711 ) ;
#493 = CARTESIAN_POINT ( 'NONE',  ( 11.00000000000000000, 2.000000000000000000, -9.999999999999996447 ) ) ;
#494 = CONICAL_SURFACE ( 'NONE', #1062, 2.500000000000000000, 0.05235987755983000091 ) ;
#495 = ORIENTED_EDGE ( 'NONE', *, *, #1121, .F. ) ;
#496 = CARTESIAN_POINT ( 'NONE',  ( 15.00000000000000355, 0.000000000000000000, 2.500000000000000444 ) ) ;
#497 = EDGE_LOOP ( 'NONE', ( #967, #1040 ) ) ;
#498 = CARTESIAN_POINT ( 'NONE',  ( 11.00000000000000000, 65.00000000000000000, 0.000000000000000000 ) ) ;
#499 = ADVANCED_FACE ( 'NONE', ( #434 ), #772, .T. ) ;
#500 = DIRECTION ( 'NONE',  ( 1.000000000000000000, -0.000000000000000000, 0.000000000000000000 ) ) ;
#501 = CARTESIAN_POINT ( 'NONE',  ( 11.00000000000000000, 81.00000000000000000, -8.999999999999998224 ) ) ;
#502 = CARTESIAN_POINT ( 'NONE',  ( 15.00000000000000355, 2.000000000000000000, 2.500000000000000444 ) ) ;
#503 = ORIENTED_EDGE ( 'NONE', *, *, #537, .T. ) ;
#504 = CARTESIAN_POINT ( 'NONE',  ( -5.000000000000000000, 82.00000000000000000, 0.000000000000000000 ) ) ;
#505 = CC_DESIGN_PERSON_AND_ORGANIZATION_ASSIGNMENT ( #999, #906, ( #459 ) ) ;
#506 = EDGE_CURVE ( 'NONE', #781, #816, #156, .T. ) ;
#507 = LINE ( 'NONE', #11, #699 ) ;
#508 = DATE_AND_TIME ( #112, #860 ) ;
#509 = DIRECTION ( 'NONE',  ( -0.000000000000000000, -1.000000000000000000, 0.000000000000000000 ) ) ;
#510 = CONICAL_SURFACE ( 'NONE', #324, 1.501370465245426278, 0.05235987755983000091 ) ;
#511 = VECTOR ( 'NONE', #1081, 1000.000000000000000 ) ;
#512 = EDGE_CURVE ( 'NONE', #402, #974, #234, .T. ) ;
#513 = AXIS2_PLACEMENT_3D ( 'NONE', #589, #176, #762 ) ;
#514 = PERSON_AND_ORGANIZATION ( #293, #198 ) ;
#515 = CIRCLE ( 'NONE', #1064, 2.499999999999999112 ) ;
#516 = CARTESIAN_POINT ( 'NONE',  ( -1.317541634481457224, 65.00000000000000000, 2.500000000000000000 ) ) ;
#517 = DIRECTION ( 'NONE',  ( 0.000000000000000000, 0.000000000000000000, 1.000000000000000000 ) ) ;
#518 = DIRECTION ( 'NONE',  ( 0.000000000000000000, 0.000000000000000000, -1.000000000000000000 ) ) ;
#519 = ORIENTED_EDGE ( 'NONE', *, *, #17, .T. ) ;
#520 = ADVANCED_FACE ( 'NONE', ( #1022 ), #662, .F. ) ;
#521 = CARTESIAN_POINT ( 'NONE',  ( 5.000000000000000000, 90.00000000000000000, -2.080737765735668710 ) ) ;
#522 = FACE_OUTER_BOUND ( 'NONE', #238, .T. ) ;
#523 = CARTESIAN_POINT ( 'NONE',  ( -5.000000000000000000, 90.00000000000000000, -2.080737765735669598 ) ) ;
#524 = EDGE_LOOP ( 'NONE', ( #724, #475 ) ) ;
#525 = CALENDAR_DATE ( 2026, 1, 8 ) ;
#526 = DIRECTION ( 'NONE',  ( 0.000000000000000000, 0.000000000000000000, 1.000000000000000000 ) ) ;
#527 = EDGE_CURVE ( 'NONE', #192, #130, #169, .T. ) ;
#528 = PLANE ( 'NONE',  #117 ) ;
#529 = LOCAL_TIME ( 6, 12, 47.00000000000000000, #416 ) ;
#530 = DIRECTION ( 'NONE',  ( 1.000000000000000000, -0.000000000000000000, 0.000000000000000000 ) ) ;
#531 = VECTOR ( 'NONE', #669, 1000.000000000000000 ) ;
#532 = AXIS2_PLACEMENT_3D ( 'NONE', #138, #534, #120 ) ;
#533 = DATE_TIME_ROLE ( 'classification_date' ) ;
#534 = DIRECTION ( 'NONE',  ( -1.000000000000000000, 0.000000000000000000, 0.000000000000000000 ) ) ;
#535 = VERTEX_POINT ( 'NONE', #359 ) ;
#536 = CARTESIAN_POINT ( 'NONE',  ( -25.00000000000000000, 2.000000000000000000, -2.499999999999931166 ) ) ;
#537 = EDGE_CURVE ( 'NONE', #1279, #109, #754, .T. ) ;
#538 = LINE ( 'NONE', #37, #958 ) ;
#539 = EDGE_LOOP ( 'NONE', ( #1021, #305, #1256, #3 ) ) ;
#540 = PRODUCT_DEFINITION_SHAPE ( 'NONE', 'NONE',  #459 ) ;
#541 = LINE ( 'NONE', #819, #957 ) ;
#542 = CARTESIAN_POINT ( 'NONE',  ( 0.000000000000000000, 25.00000000000000000, -2.500000000000000000 ) ) ;
#543 = ADVANCED_FACE ( 'NONE', ( #588 ), #485, .T. ) ;
#544 = CARTESIAN_POINT ( 'NONE',  ( 1.317541634481460555, 25.00000000000000000, 2.500000000000000000 ) ) ;
#545 = PERSON_AND_ORGANIZATION_ROLE ( 'classification_officer' ) ;
#546 = CARTESIAN_POINT ( 'NONE',  ( 1.317541634481460555, 65.00000000000000000, 2.500000000000000000 ) ) ;
#547 = ORIENTED_EDGE ( 'NONE', *, *, #131, .F. ) ;
#548 = EDGE_CURVE ( 'NONE', #823, #89, #570, .T. ) ;
#549 = VECTOR ( 'NONE', #768, 1000.000000000000000 ) ;
#550 = CARTESIAN_POINT ( 'NONE',  ( -11.00000000000000000, 82.00000000000000000, 0.000000000000000000 ) ) ;
#551 = CIRCLE ( 'NONE', #241, 9.000000000000001776 ) ;
#552 = CARTESIAN_POINT ( 'NONE',  ( 0.000000000000000000, 15.00000000000000000, 0.000000000000000000 ) ) ;
#553 = ORIENTED_EDGE ( 'NONE', *, *, #248, .T. ) ;
#554 = EDGE_LOOP ( 'NONE', ( #1158, #993, #766, #477 ) ) ;
#555 = CARTESIAN_POINT ( 'NONE',  ( 11.00000000000000000, 82.00000000000000000, -8.999999999999998224 ) ) ;
#556 = CARTESIAN_POINT ( 'NONE',  ( 0.000000000000000000, 82.00000000000000000, 0.000000000000000000 ) ) ;
#557 = CARTESIAN_POINT ( 'NONE',  ( -5.000000000000000000, 82.00000000000000000, 0.000000000000000000 ) ) ;
#558 = EDGE_LOOP ( 'NONE', ( #28, #1116, #40, #77 ) ) ;
#559 = FACE_OUTER_BOUND ( 'NONE', #286, .T. ) ;
#560 = VERTEX_POINT ( 'NONE', #1172 ) ;
#561 = CARTESIAN_POINT ( 'NONE',  ( -14.99999999999993072, 2.000000000000000000, 12.49999999999999822 ) ) ;
#562 = ADVANCED_FACE ( 'NONE', ( #1271, #952 ), #1245, .T. ) ;
#563 = CYLINDRICAL_SURFACE ( 'NONE', #882, 9.000000000000001776 ) ;
#564 = VERTEX_POINT ( 'NONE', #561 ) ;
#565 = AXIS2_PLACEMENT_3D ( 'NONE', #456, #847, #1244 ) ;
#566 = CYLINDRICAL_SURFACE ( 'NONE', #939, 9.999999999999996447 ) ;
#567 = CIRCLE ( 'NONE', #1039, 9.999999999999996447 ) ;
#568 = ORIENTED_EDGE ( 'NONE', *, *, #336, .T. ) ;
#569 = AXIS2_PLACEMENT_3D ( 'NONE', #420, #731, #822 ) ;
#570 = LINE ( 'NONE', #271, #1002 ) ;
#571 = AXIS2_PLACEMENT_3D ( 'NONE', #679, #1067, #580 ) ;
#572 = CARTESIAN_POINT ( 'NONE',  ( -10.99999999999999822, 0.000000000000000000, 9.000000000000001776 ) ) ;
#573 = EDGE_CURVE ( 'NONE', #1060, #1218, #382, .T. ) ;
#574 = CIRCLE ( 'NONE', #739, 2.500000000000000000 ) ;
#575 = EDGE_LOOP ( 'NONE', ( #57, #447, #1155, #1276 ) ) ;
#576 = EDGE_LOOP ( 'NONE', ( #1065, #347 ) ) ;
#577 = FACE_BOUND ( 'NONE', #356, .T. ) ;
#578 = ORIENTED_EDGE ( 'NONE', *, *, #527, .F. ) ;
#579 = FACE_OUTER_BOUND ( 'NONE', #269, .T. ) ;
#580 = DIRECTION ( 'NONE',  ( 0.000000000000000000, 0.000000000000000000, 1.000000000000000000 ) ) ;
#581 = EDGE_CURVE ( 'NONE', #245, #560, #223, .T. ) ;
#582 = ORIENTED_EDGE ( 'NONE', *, *, #758, .F. ) ;
#583 = EDGE_CURVE ( 'NONE', #1017, #938, #734, .T. ) ;
#584 = CARTESIAN_POINT ( 'NONE',  ( 15.00000000000000355, 2.000000000000000000, -2.500000000000003997 ) ) ;
#585 = MECHANICAL_CONTEXT ( 'NONE', #1160, 'mechanical' ) ;
#586 = ORIENTED_EDGE ( 'NONE', *, *, #527, .T. ) ;
#587 = CARTESIAN_POINT ( 'NONE',  ( 15.00000000000000355, 2.000000000000000000, -2.500000000000003997 ) ) ;
#588 = FACE_OUTER_BOUND ( 'NONE', #1070, .T. ) ;
#589 = CARTESIAN_POINT ( 'NONE',  ( -11.00000000000000000, 2.000000000000000000, 0.000000000000000000 ) ) ;
#590 = EDGE_LOOP ( 'NONE', ( #261, #452, #329, #578 ) ) ;
#591 = DIRECTION ( 'NONE',  ( -0.000000000000000000, -1.000000000000000000, -0.000000000000000000 ) ) ;
#592 = ADVANCED_FACE ( 'NONE', ( #164, #948 ), #761, .T. ) ;
#593 = EDGE_LOOP ( 'NONE', ( #421, #145, #281, #1115 ) ) ;
#594 = CARTESIAN_POINT ( 'NONE',  ( 5.000000000000000000, 81.00000000000000000, 0.000000000000000000 ) ) ;
#595 = AXIS2_PLACEMENT_3D ( 'NONE', #228, #607, #111 ) ;
#596 = DIRECTION ( 'NONE',  ( 0.000000000000000000, 0.000000000000000000, 1.000000000000000000 ) ) ;
#597 = VECTOR ( 'NONE', #1280, 1000.000000000000000 ) ;
#598 = CIRCLE ( 'NONE', #656, 10.00000000000000000 ) ;
#599 = APPROVAL_ROLE ( '' ) ;
#600 = ADVANCED_FACE ( 'NONE', ( #265 ), #58, .T. ) ;
#601 = ORIENTED_EDGE ( 'NONE', *, *, #512, .T. ) ;
#602 = DIRECTION ( 'NONE',  ( 0.000000000000000000, 1.000000000000000000, -0.000000000000000000 ) ) ;
#603 = PLANE ( 'NONE',  #737 ) ;
#604 = ORIENTED_EDGE ( 'NONE', *, *, #206, .F. ) ;
#605 = ORIENTED_EDGE ( 'NONE', *, *, #1260, .F. ) ;
#606 = CARTESIAN_POINT ( 'NONE',  ( 5.000000000000000000, 82.00000000000000000, 0.000000000000000000 ) ) ;
#607 = DIRECTION ( 'NONE',  ( 0.000000000000000000, -1.000000000000000000, 0.000000000000000000 ) ) ;
#608 = FACE_OUTER_BOUND ( 'NONE', #690, .T. ) ;
#609 = ORIENTED_EDGE ( 'NONE', *, *, #726, .T. ) ;
#610 = APPROVAL_DATE_TIME ( #216, #615 ) ;
#611 = CARTESIAN_POINT ( 'NONE',  ( -1.317541634481457224, 75.00000000000000000, -2.500000000000000000 ) ) ;
#612 = FACE_OUTER_BOUND ( 'NONE', #956, .T. ) ;
#613 = DIRECTION ( 'NONE',  ( 0.000000000000000000, 1.000000000000000000, -0.000000000000000000 ) ) ;
#614 = VECTOR ( 'NONE', #62, 1000.000000000000000 ) ;
#615 = APPROVAL ( #203, 'UNSPECIFIED' ) ;
#616 = AXIS2_PLACEMENT_3D ( 'NONE', #419, #14, #1102 ) ;
#617 = ORIENTED_EDGE ( 'NONE', *, *, #1260, .T. ) ;
#618 = COORDINATED_UNIVERSAL_TIME_OFFSET ( 5, 30, .AHEAD. ) ;
#619 = FACE_OUTER_BOUND ( 'NONE', #1233, .T. ) ;
#620 = DIRECTION ( 'NONE',  ( 0.000000000000000000, 0.000000000000000000, -1.000000000000000000 ) ) ;
#621 = FACE_OUTER_BOUND ( 'NONE', #380, .T. ) ;
#622 = ADVANCED_FACE ( 'NONE', ( #775 ), #1264, .T. ) ;
#623 = LINE ( 'NONE', #132, #1251 ) ;
#624 = ORIENTED_EDGE ( 'NONE', *, *, #1121, .T. ) ;
#625 = CARTESIAN_POINT ( 'NONE',  ( 1.317541634481460555, 75.00000000000000000, 2.500000000000000000 ) ) ;
#626 = EDGE_LOOP ( 'NONE', ( #205, #188, #1224, #1258 ) ) ;
#627 = EDGE_CURVE ( 'NONE', #461, #963, #881, .T. ) ;
#628 = CARTESIAN_POINT ( 'NONE',  ( -11.00000000000000000, 0.000000000000000000, 0.000000000000000000 ) ) ;
#629 = DIRECTION ( 'NONE',  ( -0.000000000000000000, -1.000000000000000000, -0.000000000000000000 ) ) ;
#630 = PRODUCT_DEFINITION_FORMATION_WITH_SPECIFIED_SOURCE ( 'ANY', '', #783, .NOT_KNOWN. ) ;
#631 = CARTESIAN_POINT ( 'NONE',  ( 0.000000000000000000, 75.00000000000000000, 2.500000000000000000 ) ) ;
#632 = AXIS2_PLACEMENT_3D ( 'NONE', #1032, #728, #50 ) ;
#633 = AXIS2_PLACEMENT_3D ( 'NONE', #23, #246, #1113 ) ;
#634 = AXIS2_PLACEMENT_3D ( 'NONE', #594, #706, #400 ) ;
#635 = DIRECTION ( 'NONE',  ( 0.000000000000000000, 0.000000000000000000, 1.000000000000000000 ) ) ;
#636 = AXIS2_PLACEMENT_3D ( 'NONE', #1211, #1198, #986 ) ;
#637 = EDGE_CURVE ( 'NONE', #790, #465, #257, .T. ) ;
#638 = DIRECTION ( 'NONE',  ( -0.000000000000000000, -1.000000000000000000, -0.000000000000000000 ) ) ;
#639 = EDGE_CURVE ( 'NONE', #370, #879, #1163, .T. ) ;
#640 = EDGE_LOOP ( 'NONE', ( #617, #113 ) ) ;
#641 = PERSON_AND_ORGANIZATION ( #293, #198 ) ;
#642 = FACE_BOUND ( 'NONE', #575, .T. ) ;
#643 = ORIENTED_EDGE ( 'NONE', *, *, #810, .F. ) ;
#644 = DIRECTION ( 'NONE',  ( 0.000000000000000000, 0.000000000000000000, 1.000000000000000000 ) ) ;
#645 = ADVANCED_FACE ( 'NONE', ( #579 ), #83, .F. ) ;
#646 = FACE_OUTER_BOUND ( 'NONE', #1053, .T. ) ;
#647 = ADVANCED_BREP_SHAPE_REPRESENTATION ( 'CSWP_18_21', ( #1075, #63 ), #29 ) ;
#648 = ORIENTED_EDGE ( 'NONE', *, *, #826, .T. ) ;
#649 = CARTESIAN_POINT ( 'NONE',  ( 5.000000000000000000, 90.00000000000000000, 0.000000000000000000 ) ) ;
#650 = CARTESIAN_POINT ( 'NONE',  ( -11.00000000000000000, 82.00000000000000000, 0.000000000000000000 ) ) ;
#651 = LOCAL_TIME ( 6, 12, 47.00000000000000000, #618 ) ;
#652 = VECTOR ( 'NONE', #306, 1000.000000000000000 ) ;
#653 = ORIENTED_EDGE ( 'NONE', *, *, #712, .T. ) ;
#654 = FACE_BOUND ( 'NONE', #839, .T. ) ;
#655 = VECTOR ( 'NONE', #1284, 1000.000000000000114 ) ;
#656 = AXIS2_PLACEMENT_3D ( 'NONE', #1076, #866, #59 ) ;
#657 = CARTESIAN_POINT ( 'NONE',  ( 1.317541634481460555, 25.00000000000000000, -2.500000000000000000 ) ) ;
#658 = VERTEX_POINT ( 'NONE', #1107 ) ;
#659 = VERTEX_POINT ( 'NONE', #782 ) ;
#660 = CARTESIAN_POINT ( 'NONE',  ( -5.000000000000000000, 82.00000000000000000, 2.500000000000000000 ) ) ;
#661 = EDGE_CURVE ( 'NONE', #320, #1047, #395, .T. ) ;
#662 = PLANE ( 'NONE',  #830 ) ;
#663 = DIRECTION ( 'NONE',  ( 0.000000000000000000, 0.000000000000000000, -1.000000000000000000 ) ) ;
#664 = ORIENTED_EDGE ( 'NONE', *, *, #185, .T. ) ;
#665 = DIRECTION ( 'NONE',  ( 0.000000000000000000, 0.000000000000000000, 1.000000000000000000 ) ) ;
#666 = EDGE_CURVE ( 'NONE', #981, #763, #1248, .T. ) ;
#667 = COORDINATED_UNIVERSAL_TIME_OFFSET ( 5, 30, .AHEAD. ) ;
#668 = ORIENTED_EDGE ( 'NONE', *, *, #912, .T. ) ;
#669 = DIRECTION ( 'NONE',  ( -0.000000000000000000, -1.000000000000000000, -0.000000000000000000 ) ) ;
#670 = DIRECTION ( 'NONE',  ( 0.000000000000000000, 0.000000000000000000, 1.000000000000000000 ) ) ;
#671 = ORIENTED_EDGE ( 'NONE', *, *, #1033, .T. ) ;
#672 = LINE ( 'NONE', #1191, #851 ) ;
#673 = CIRCLE ( 'NONE', #256, 8.999999999999998224 ) ;
#674 = ORIENTED_EDGE ( 'NONE', *, *, #726, .F. ) ;
#675 = CIRCLE ( 'NONE', #721, 9.000000000000001776 ) ;
#676 = CARTESIAN_POINT ( 'NONE',  ( 14.99999999999993072, 2.000000000000000000, -12.50000000000000178 ) ) ;
#677 = EDGE_CURVE ( 'NONE', #1170, #770, #218, .T. ) ;
#678 = AXIS2_PLACEMENT_3D ( 'NONE', #478, #388, #859 ) ;
#679 = CARTESIAN_POINT ( 'NONE',  ( 11.00000000000000000, 0.000000000000000000, 0.000000000000000000 ) ) ;
#680 = EDGE_CURVE ( 'NONE', #455, #142, #1195, .T. ) ;
#681 = ORIENTED_EDGE ( 'NONE', *, *, #262, .F. ) ;
#682 = VERTEX_POINT ( 'NONE', #1203 ) ;
#683 = DIRECTION ( 'NONE',  ( -1.000000000000000000, 0.000000000000000000, -0.000000000000000000 ) ) ;
#684 = DIRECTION ( 'NONE',  ( 0.000000000000000000, 0.000000000000000000, 1.000000000000000000 ) ) ;
#685 = ORIENTED_EDGE ( 'NONE', *, *, #661, .T. ) ;
#686 = CARTESIAN_POINT ( 'NONE',  ( -25.00000000000000000, 2.000000000000000000, 2.499999999999927613 ) ) ;
#687 = FACE_OUTER_BOUND ( 'NONE', #1095, .T. ) ;
#688 = ADVANCED_FACE ( 'NONE', ( #522 ), #510, .F. ) ;
#689 = CARTESIAN_POINT ( 'NONE',  ( 1.317541634481460555, 25.00000000000000000, -2.500000000000000000 ) ) ;
#690 = EDGE_LOOP ( 'NONE', ( #1130, #276, #519, #1146 ) ) ;
#691 = CARTESIAN_POINT ( 'NONE',  ( 11.00000000000000178, 0.000000000000000000, 9.000000000000000000 ) ) ;
#692 = VERTEX_POINT ( 'NONE', #319 ) ;
#693 = DIRECTION ( 'NONE',  ( 0.000000000000000000, 1.000000000000000000, -0.000000000000000000 ) ) ;
#694 = ORIENTED_EDGE ( 'NONE', *, *, #680, .T. ) ;
#695 = EDGE_CURVE ( 'NONE', #790, #1136, #1189, .T. ) ;
#696 = ORIENTED_EDGE ( 'NONE', *, *, #1132, .T. ) ;
#697 = APPLICATION_PROTOCOL_DEFINITION ( 'international standard', 'config_control_design', 1994, #1045 ) ;
#698 = ORIENTED_EDGE ( 'NONE', *, *, #844, .T. ) ;
#699 = VECTOR ( 'NONE', #412, 1000.000000000000000 ) ;
#700 = PLANE ( 'NONE',  #70 ) ;
#701 = VECTOR ( 'NONE', #812, 1000.000000000000000 ) ;
#702 = CIRCLE ( 'NONE', #856, 10.00000000000000000 ) ;
#703 = VERTEX_POINT ( 'NONE', #788 ) ;
#704 = FACE_BOUND ( 'NONE', #428, .T. ) ;
#705 = EDGE_CURVE ( 'NONE', #703, #433, #1230, .T. ) ;
#706 = DIRECTION ( 'NONE',  ( 0.000000000000000000, 1.000000000000000000, -0.000000000000000000 ) ) ;
#707 = DIRECTION ( 'NONE',  ( 0.000000000000000000, 0.000000000000000000, 1.000000000000000000 ) ) ;
#708 = DIRECTION ( 'NONE',  ( 0.000000000000000000, 0.000000000000000000, -1.000000000000000000 ) ) ;
#709 = ORIENTED_EDGE ( 'NONE', *, *, #928, .T. ) ;
#710 = APPROVAL_STATUS ( 'not_yet_approved' ) ;
#711 = DIRECTION ( 'NONE',  ( 0.000000000000000000, 0.000000000000000000, 1.000000000000000000 ) ) ;
#712 = EDGE_CURVE ( 'NONE', #192, #682, #567, .T. ) ;
#713 = DIRECTION ( 'NONE',  ( 0.000000000000000000, 1.000000000000000000, -0.000000000000000000 ) ) ;
#714 = ORIENTED_EDGE ( 'NONE', *, *, #776, .F. ) ;
#715 = LINE ( 'NONE', #913, #924 ) ;
#716 = CARTESIAN_POINT ( 'NONE',  ( 11.00000000000000000, 25.00000000000000000, 0.000000000000000000 ) ) ;
#717 = DIRECTION ( 'NONE',  ( 0.000000000000000000, -0.9986295347545739443, 0.05233595624294395260 ) ) ;
#718 = VECTOR ( 'NONE', #1208, 1000.000000000000000 ) ;
#719 = ORIENTED_EDGE ( 'NONE', *, *, #410, .T. ) ;
#720 = EDGE_CURVE ( 'NONE', #20, #1170, #463, .T. ) ;
#721 = AXIS2_PLACEMENT_3D ( 'NONE', #628, #146, #635 ) ;
#722 = AXIS2_PLACEMENT_3D ( 'NONE', #733, #1127, #1029 ) ;
#723 = CARTESIAN_POINT ( 'NONE',  ( -25.00000000000000000, 0.000000000000000000, -2.499999999999931166 ) ) ;
#724 = ORIENTED_EDGE ( 'NONE', *, *, #581, .F. ) ;
#725 = CARTESIAN_POINT ( 'NONE',  ( 1.317541634481460555, 15.00000000000000000, -2.500000000000000000 ) ) ;
#726 = EDGE_CURVE ( 'NONE', #1218, #974, #1214, .T. ) ;
#727 = DIRECTION ( 'NONE',  ( 0.000000000000000000, 1.000000000000000000, -0.000000000000000000 ) ) ;
#728 = DIRECTION ( 'NONE',  ( 0.000000000000000000, 1.000000000000000000, -0.000000000000000000 ) ) ;
#729 = ORIENTED_EDGE ( 'NONE', *, *, #1034, .T. ) ;
#730 = PRODUCT_RELATED_PRODUCT_CATEGORY ( 'detail', '', ( #783 ) ) ;
#731 = DIRECTION ( 'NONE',  ( -0.000000000000000000, -1.000000000000000000, -0.000000000000000000 ) ) ;
#732 = FACE_OUTER_BOUND ( 'NONE', #454, .T. ) ;
#733 = CARTESIAN_POINT ( 'NONE',  ( 11.00000000000000000, 82.00000000000000000, 0.000000000000000000 ) ) ;
#734 = CIRCLE ( 'NONE', #980, 2.080737765735668710 ) ;
#735 = ORIENTED_EDGE ( 'NONE', *, *, #844, .F. ) ;
#736 = CIRCLE ( 'NONE', #899, 1.551035433285120613 ) ;
#737 = AXIS2_PLACEMENT_3D ( 'NONE', #422, #713, #101 ) ;
#738 = FACE_OUTER_BOUND ( 'NONE', #171, .T. ) ;
#739 = AXIS2_PLACEMENT_3D ( 'NONE', #504, #310, #321 ) ;
#740 = ORIENTED_EDGE ( 'NONE', *, *, #870, .F. ) ;
#741 = CARTESIAN_POINT ( 'NONE',  ( 0.000000000000000000, 65.00000000000000000, -2.500000000000000000 ) ) ;
#742 = DIRECTION ( 'NONE',  ( -1.000000000000000000, -0.000000000000000000, -0.000000000000000000 ) ) ;
#743 = DATE_AND_TIME ( #1055, #239 ) ;
#744 = LINE ( 'NONE', #741, #903 ) ;
#745 = PLANE ( 'NONE',  #35 ) ;
#746 = CARTESIAN_POINT ( 'NONE',  ( -5.000000000000000000, 81.00000000000000000, 0.000000000000000000 ) ) ;
#747 = PERSON_AND_ORGANIZATION_ROLE ( 'creator' ) ;
#748 = DIRECTION ( 'NONE',  ( 0.000000000000000000, 0.000000000000000000, 1.000000000000000000 ) ) ;
#749 = ADVANCED_FACE ( 'NONE', ( #796, #401, #294 ), #1101, .T. ) ;
#750 = ORIENTED_EDGE ( 'NONE', *, *, #1180, .T. ) ;
#751 = CIRCLE ( 'NONE', #898, 10.00000000000000000 ) ;
#752 = CARTESIAN_POINT ( 'NONE',  ( 5.000000000000000000, 90.00000000000000000, 0.000000000000000000 ) ) ;
#753 = CIRCLE ( 'NONE', #1232, 2.080737765735669598 ) ;
#754 = LINE ( 'NONE', #873, #853 ) ;
#755 = CARTESIAN_POINT ( 'NONE',  ( 11.00000000000000000, 15.00000000000000000, 0.000000000000000000 ) ) ;
#756 = EDGE_LOOP ( 'NONE', ( #15, #1227 ) ) ;
#757 = ORIENTED_EDGE ( 'NONE', *, *, #451, .T. ) ;
#758 = EDGE_CURVE ( 'NONE', #770, #936, #507, .T. ) ;
#759 = DIRECTION ( 'NONE',  ( 0.000000000000000000, 1.000000000000000000, 0.000000000000000000 ) ) ;
#760 = ORIENTED_EDGE ( 'NONE', *, *, #1088, .F. ) ;
#761 = PLANE ( 'NONE',  #442 ) ;
#762 = DIRECTION ( 'NONE',  ( 0.000000000000000000, 0.000000000000000000, 1.000000000000000000 ) ) ;
#763 = VERTEX_POINT ( 'NONE', #314 ) ;
#764 = FACE_BOUND ( 'NONE', #73, .T. ) ;
#765 = DESIGN_CONTEXT ( 'detailed design', #1045, 'design' ) ;
#766 = ORIENTED_EDGE ( 'NONE', *, *, #76, .T. ) ;
#767 = ADVANCED_FACE ( 'NONE', ( #612 ), #64, .F. ) ;
#768 = DIRECTION ( 'NONE',  ( -0.000000000000000000, -1.000000000000000000, -0.000000000000000000 ) ) ;
#769 = DIRECTION ( 'NONE',  ( 0.000000000000000000, 0.000000000000000000, 1.000000000000000000 ) ) ;
#770 = VERTEX_POINT ( 'NONE', #71 ) ;
#771 = CARTESIAN_POINT ( 'NONE',  ( 15.00000000000000355, 0.000000000000000000, -2.500000000000003997 ) ) ;
#772 = CONICAL_SURFACE ( 'NONE', #466, 2.499999999999999112, 0.05235987755983000091 ) ;
#773 = EDGE_LOOP ( 'NONE', ( #55, #1243, #1281, #373 ) ) ;
#774 = AXIS2_PLACEMENT_3D ( 'NONE', #72, #371, #172 ) ;
#775 = FACE_OUTER_BOUND ( 'NONE', #793, .T. ) ;
#776 = EDGE_CURVE ( 'NONE', #692, #89, #751, .T. ) ;
#777 = AXIS2_PLACEMENT_3D ( 'NONE', #965, #1052, #290 ) ;
#778 = LINE ( 'NONE', #375, #960 ) ;
#779 = CARTESIAN_POINT ( 'NONE',  ( -11.00000000000000000, 15.00000000000000000, 0.000000000000000000 ) ) ;
#780 = CARTESIAN_POINT ( 'NONE',  ( 11.00000000000000000, 2.000000000000000000, 0.000000000000000000 ) ) ;
#781 = VERTEX_POINT ( 'NONE', #209 ) ;
#782 = CARTESIAN_POINT ( 'NONE',  ( -1.317541634481457224, 65.00000000000000000, -2.500000000000000000 ) ) ;
#783 = PRODUCT ( 'CSWP_18_21', 'CSWP_18_21', '', ( #585 ) ) ;
#784 = CARTESIAN_POINT ( 'NONE',  ( 11.00000000000000178, 2.000000000000000000, 9.999999999999996447 ) ) ;
#785 = LINE ( 'NONE', #201, #1194 ) ;
#786 = PERSON_AND_ORGANIZATION_ROLE ( 'design_owner' ) ;
#787 = ORIENTED_EDGE ( 'NONE', *, *, #1222, .T. ) ;
#788 = CARTESIAN_POINT ( 'NONE',  ( 1.317541634481460555, 65.00000000000000000, -2.500000000000000000 ) ) ;
#789 = FACE_OUTER_BOUND ( 'NONE', #1177, .T. ) ;
#790 = VERTEX_POINT ( 'NONE', #689 ) ;
#791 = EDGE_CURVE ( 'NONE', #770, #370, #303, .T. ) ;
#792 = FACE_OUTER_BOUND ( 'NONE', #1138, .T. ) ;
#793 = EDGE_LOOP ( 'NONE', ( #609, #178, #334, #1252 ) ) ;
#794 = FACE_OUTER_BOUND ( 'NONE', #887, .T. ) ;
#795 = DIRECTION ( 'NONE',  ( 0.000000000000000000, 0.000000000000000000, 1.000000000000000000 ) ) ;
#796 = FACE_BOUND ( 'NONE', #1190, .T. ) ;
#797 = AXIS2_PLACEMENT_3D ( 'NONE', #584, #284, #473 ) ;
#798 = EDGE_LOOP ( 'NONE', ( #624, #694, #900, #832 ) ) ;
#799 = FACE_BOUND ( 'NONE', #576, .T. ) ;
#800 = CIRCLE ( 'NONE', #470, 9.999999999999996447 ) ;
#801 = ADVANCED_FACE ( 'NONE', ( #792 ), #978, .T. ) ;
#802 = CYLINDRICAL_SURFACE ( 'NONE', #200, 9.999999999999998224 ) ;
#803 = DIRECTION ( 'NONE',  ( 0.000000000000000000, 0.000000000000000000, 1.000000000000000000 ) ) ;
#804 = ORIENTED_EDGE ( 'NONE', *, *, #1034, .F. ) ;
#805 = CARTESIAN_POINT ( 'NONE',  ( 25.00000000000000000, 0.000000000000000000, 2.499999999999930278 ) ) ;
#806 = ORIENTED_EDGE ( 'NONE', *, *, #870, .T. ) ;
#807 = ADVANCED_FACE ( 'NONE', ( #968 ), #1266, .F. ) ;
#808 = DIRECTION ( 'NONE',  ( -0.000000000000000000, -1.000000000000000000, -0.000000000000000000 ) ) ;
#809 = DIRECTION ( 'NONE',  ( -0.000000000000000000, -1.000000000000000000, -0.000000000000000000 ) ) ;
#810 = EDGE_CURVE ( 'NONE', #658, #215, #31, .T. ) ;
#811 = DIRECTION ( 'NONE',  ( 1.000000000000000000, -0.000000000000000000, 0.000000000000000000 ) ) ;
#812 = DIRECTION ( 'NONE',  ( -0.000000000000000000, -0.000000000000000000, 1.000000000000000000 ) ) ;
#813 = CARTESIAN_POINT ( 'NONE',  ( 5.000000000000000000, 90.00000000000000000, -1.079365419737748022 ) ) ;
#814 = EDGE_CURVE ( 'NONE', #936, #879, #1003, .T. ) ;
#815 = AXIS2_PLACEMENT_3D ( 'NONE', #1011, #1285, #1277 ) ;
#816 = VERTEX_POINT ( 'NONE', #1071 ) ;
#817 = AXIS2_PLACEMENT_3D ( 'NONE', #854, #348, #150 ) ;
#818 = CARTESIAN_POINT ( 'NONE',  ( 11.00000000000000000, 0.000000000000000000, -9.000000000000000000 ) ) ;
#819 = CARTESIAN_POINT ( 'NONE',  ( 14.99999999999993072, 2.000000000000000000, 12.49999999999999822 ) ) ;
#820 = EDGE_CURVE ( 'NONE', #431, #852, #187, .T. ) ;
#821 = ORIENTED_EDGE ( 'NONE', *, *, #720, .T. ) ;
#822 = DIRECTION ( 'NONE',  ( 0.000000000000000000, 0.000000000000000000, 1.000000000000000000 ) ) ;
#823 = VERTEX_POINT ( 'NONE', #391 ) ;
#824 = CARTESIAN_POINT ( 'NONE',  ( 14.99999999999993072, 2.000000000000000000, -12.50000000000000178 ) ) ;
#825 = ORIENTED_EDGE ( 'NONE', *, *, #355, .F. ) ;
#826 = EDGE_CURVE ( 'NONE', #387, #692, #785, .T. ) ;
#827 = DIRECTION ( 'NONE',  ( -0.000000000000000000, -1.000000000000000000, -0.000000000000000000 ) ) ;
#828 = DIRECTION ( 'NONE',  ( 0.000000000000000000, 1.000000000000000000, -0.000000000000000000 ) ) ;
#829 = ORIENTED_EDGE ( 'NONE', *, *, #776, .T. ) ;
#830 = AXIS2_PLACEMENT_3D ( 'NONE', #190, #748, #964 ) ;
#831 = AXIS2_PLACEMENT_3D ( 'NONE', #771, #1085, #95 ) ;
#832 = ORIENTED_EDGE ( 'NONE', *, *, #627, .F. ) ;
#833 = VECTOR ( 'NONE', #530, 1000.000000000000000 ) ;
#834 = EDGE_CURVE ( 'NONE', #233, #816, #195, .T. ) ;
#835 = CARTESIAN_POINT ( 'NONE',  ( 11.00000000000000000, 82.00000000000000000, 0.000000000000000000 ) ) ;
#836 = APPROVAL_ROLE ( '' ) ;
#837 = DIRECTION ( 'NONE',  ( 0.000000000000000000, 1.000000000000000000, 0.000000000000000000 ) ) ;
#838 = CC_DESIGN_APPROVAL ( #363, ( #154 ) ) ;
#839 = EDGE_LOOP ( 'NONE', ( #681, #344, #42, #1181 ) ) ;
#840 = CARTESIAN_POINT ( 'NONE',  ( -5.000000000000000000, 81.00000000000000000, -1.551035433285120391 ) ) ;
#841 = PERSON_AND_ORGANIZATION ( #293, #198 ) ;
#842 = ORIENTED_EDGE ( 'NONE', *, *, #115, .F. ) ;
#843 = DIRECTION ( 'NONE',  ( 0.000000000000000000, 1.000000000000000000, -0.000000000000000000 ) ) ;
#844 = EDGE_CURVE ( 'NONE', #989, #233, #304, .T. ) ;
#845 = DIRECTION ( 'NONE',  ( 0.000000000000000000, 1.000000000000000000, -0.000000000000000000 ) ) ;
#846 = VERTEX_POINT ( 'NONE', #611 ) ;
#847 = DIRECTION ( 'NONE',  ( 0.000000000000000000, 1.000000000000000000, -0.000000000000000000 ) ) ;
#848 = DIRECTION ( 'NONE',  ( 0.000000000000000000, 0.000000000000000000, 1.000000000000000000 ) ) ;
#849 = PLANE ( 'NONE',  #902 ) ;
#850 = EDGE_CURVE ( 'NONE', #393, #658, #394, .T. ) ;
#851 = VECTOR ( 'NONE', #482, 1000.000000000000000 ) ;
#852 = VERTEX_POINT ( 'NONE', #691 ) ;
#853 = VECTOR ( 'NONE', #1074, 1000.000000000000114 ) ;
#854 = CARTESIAN_POINT ( 'NONE',  ( -11.00000000000000000, 81.00000000000000000, 0.000000000000000000 ) ) ;
#855 = VECTOR ( 'NONE', #1253, 1000.000000000000000 ) ;
#856 = AXIS2_PLACEMENT_3D ( 'NONE', #1013, #1205, #596 ) ;
#857 = ORIENTED_EDGE ( 'NONE', *, *, #307, .F. ) ;
#858 = CARTESIAN_POINT ( 'NONE',  ( 5.000000000000000000, 82.00000000000000000, 0.000000000000000000 ) ) ;
#859 = DIRECTION ( 'NONE',  ( 0.000000000000000000, 0.000000000000000000, 1.000000000000000000 ) ) ;
#860 = LOCAL_TIME ( 6, 12, 47.00000000000000000, #153 ) ;
#861 = ORIENTED_EDGE ( 'NONE', *, *, #862, .F. ) ;
#862 = EDGE_CURVE ( 'NONE', #846, #659, #189, .T. ) ;
#863 = LINE ( 'NONE', #1054, #1212 ) ;
#864 = ORIENTED_EDGE ( 'NONE', *, *, #895, .T. ) ;
#865 = CARTESIAN_POINT ( 'NONE',  ( 5.000000000000000000, 90.00000000000000000, 0.000000000000000000 ) ) ;
#866 = DIRECTION ( 'NONE',  ( -0.000000000000000000, -1.000000000000000000, 0.000000000000000000 ) ) ;
#867 = VERTEX_POINT ( 'NONE', #1184 ) ;
#868 = ORIENTED_EDGE ( 'NONE', *, *, #982, .T. ) ;
#869 = DIRECTION ( 'NONE',  ( 0.000000000000000000, 0.000000000000000000, -1.000000000000000000 ) ) ;
#870 = EDGE_CURVE ( 'NONE', #1056, #535, #445, .T. ) ;
#871 = ORIENTED_EDGE ( 'NONE', *, *, #912, .F. ) ;
#872 = PLANE ( 'NONE',  #406 ) ;
#873 = CARTESIAN_POINT ( 'NONE',  ( -5.000000000000000000, 81.94766404375705804, 1.501370465245426278 ) ) ;
#874 = CARTESIAN_POINT ( 'NONE',  ( -25.00000000000000000, 2.000000000000000000, 2.499999999999927613 ) ) ;
#875 = CIRCLE ( 'NONE', #1123, 9.000000000000000000 ) ;
#876 = DIRECTION ( 'NONE',  ( 0.000000000000000000, 0.000000000000000000, -1.000000000000000000 ) ) ;
#877 = CARTESIAN_POINT ( 'NONE',  ( 0.000000000000000000, 0.000000000000000000, 0.000000000000000000 ) ) ;
#878 = VECTOR ( 'NONE', #212, 1000.000000000000000 ) ;
#879 = VERTEX_POINT ( 'NONE', #82 ) ;
#880 = VECTOR ( 'NONE', #808, 1000.000000000000000 ) ;
#881 = LINE ( 'NONE', #288, #405 ) ;
#882 = AXIS2_PLACEMENT_3D ( 'NONE', #75, #92, #361 ) ;
#883 = FACE_OUTER_BOUND ( 'NONE', #472, .T. ) ;
#884 = EDGE_LOOP ( 'NONE', ( #274, #25, #709, #568 ) ) ;
#885 = CARTESIAN_POINT ( 'NONE',  ( 11.00000000000000178, 82.00000000000000000, 8.999999999999998224 ) ) ;
#886 = APPLICATION_PROTOCOL_DEFINITION ( 'international standard', 'config_control_design', 1994, #1160 ) ;
#887 = EDGE_LOOP ( 'NONE', ( #1031, #1083, #13, #868, #1263, #1105, #821, #1072 ) ) ;
#888 = DIRECTION ( 'NONE',  ( 0.000000000000000000, 0.000000000000000000, 1.000000000000000000 ) ) ;
#889 = CARTESIAN_POINT ( 'NONE',  ( 5.000000000000000000, 82.00000000000000000, 2.499999999999999112 ) ) ;
#890 = EDGE_CURVE ( 'NONE', #816, #781, #258, .T. ) ;
#891 = LINE ( 'NONE', #1275, #1084 ) ;
#892 = DIRECTION ( 'NONE',  ( 0.000000000000000000, 1.000000000000000000, 0.000000000000000000 ) ) ;
#893 = ORIENTED_EDGE ( 'NONE', *, *, #712, .F. ) ;
#894 = CARTESIAN_POINT ( 'NONE',  ( -10.99999999999999822, 82.00000000000000000, 10.00000000000000000 ) ) ;
#895 = EDGE_CURVE ( 'NONE', #224, #81, #753, .T. ) ;
#896 = DIRECTION ( 'NONE',  ( 1.000000000000000000, -0.000000000000000000, 0.000000000000000000 ) ) ;
#897 = CARTESIAN_POINT ( 'NONE',  ( -5.000000000000000000, 81.94766404375705804, 0.000000000000000000 ) ) ;
#898 = AXIS2_PLACEMENT_3D ( 'NONE', #779, #1175, #86 ) ;
#899 = AXIS2_PLACEMENT_3D ( 'NONE', #746, #1137, #1142 ) ;
#900 = ORIENTED_EDGE ( 'NONE', *, *, #946, .F. ) ;
#901 = LINE ( 'NONE', #1082, #1093 ) ;
#902 = AXIS2_PLACEMENT_3D ( 'NONE', #368, #384, #266 ) ;
#903 = VECTOR ( 'NONE', #39, 1000.000000000000000 ) ;
#904 = ADVANCED_FACE ( 'NONE', ( #1073 ), #802, .T. ) ;
#905 = DIRECTION ( 'NONE',  ( -0.000000000000000000, -1.000000000000000000, -0.000000000000000000 ) ) ;
#906 = PERSON_AND_ORGANIZATION_ROLE ( 'creator' ) ;
#907 = ADVANCED_FACE ( 'NONE', ( #1202, #484 ), #872, .T. ) ;
#908 = CARTESIAN_POINT ( 'NONE',  ( 1.317541634481460555, 75.00000000000000000, -2.500000000000000000 ) ) ;
#909 = CARTESIAN_POINT ( 'NONE',  ( 11.00000000000000000, 75.00000000000000000, 0.000000000000000000 ) ) ;
#910 = ORIENTED_EDGE ( 'NONE', *, *, #242, .F. ) ;
#911 = DIRECTION ( 'NONE',  ( -1.000000000000000000, 0.000000000000000000, -0.000000000000000000 ) ) ;
#912 = EDGE_CURVE ( 'NONE', #1136, #867, #337, .T. ) ;
#913 = CARTESIAN_POINT ( 'NONE',  ( 25.00000000000000000, 2.000000000000000000, 2.499999999999930278 ) ) ;
#914 = CARTESIAN_POINT ( 'NONE',  ( 5.000000000000000000, 81.94766404375705804, 0.000000000000000000 ) ) ;
#915 = ORIENTED_EDGE ( 'NONE', *, *, #149, .T. ) ;
#916 = EDGE_LOOP ( 'NONE', ( #1069, #173, #335, #604 ) ) ;
#917 = ORIENTED_EDGE ( 'NONE', *, *, #340, .F. ) ;
#918 = CARTESIAN_POINT ( 'NONE',  ( 1.317541634481460555, 25.00000000000000000, 2.500000000000000000 ) ) ;
#919 = CC_DESIGN_DATE_AND_TIME_ASSIGNMENT ( #118, #16, ( #459 ) ) ;
#920 = AXIS2_PLACEMENT_3D ( 'NONE', #474, #167, #951 ) ;
#921 = LINE ( 'NONE', #625, #180 ) ;
#922 = AXIS2_PLACEMENT_3D ( 'NONE', #1134, #828, #243 ) ;
#923 = CARTESIAN_POINT ( 'NONE',  ( 14.99999999999993072, 2.000000000000000000, 12.49999999999999822 ) ) ;
#924 = VECTOR ( 'NONE', #929, 1000.000000000000000 ) ;
#925 = AXIS2_PLACEMENT_3D ( 'NONE', #755, #170, #1151 ) ;
#926 = LINE ( 'NONE', #908, #880 ) ;
#927 = DIRECTION ( 'NONE',  ( 0.000000000000000000, 0.000000000000000000, 1.000000000000000000 ) ) ;
#928 = EDGE_CURVE ( 'NONE', #81, #1197, #426, .T. ) ;
#929 = DIRECTION ( 'NONE',  ( -0.000000000000000000, -1.000000000000000000, -0.000000000000000000 ) ) ;
#930 = VERTEX_POINT ( 'NONE', #818 ) ;
#931 = CARTESIAN_POINT ( 'NONE',  ( 5.000000000000000000, 82.00000000000000000, 2.499999999999999112 ) ) ;
#932 = ADVANCED_FACE ( 'NONE', ( #1228 ), #280, .F. ) ;
#933 = ORIENTED_EDGE ( 'NONE', *, *, #350, .F. ) ;
#934 = DIRECTION ( 'NONE',  ( 0.000000000000000000, 1.000000000000000000, -0.000000000000000000 ) ) ;
#935 = DIRECTION ( 'NONE',  ( 0.000000000000000000, 1.000000000000000000, -0.000000000000000000 ) ) ;
#936 = VERTEX_POINT ( 'NONE', #18 ) ;
#937 = AXIS2_PLACEMENT_3D ( 'NONE', #858, #90, #1255 ) ;
#938 = VERTEX_POINT ( 'NONE', #521 ) ;
#939 = AXIS2_PLACEMENT_3D ( 'NONE', #357, #1261, #959 ) ;
#940 = APPROVAL_STATUS ( 'not_yet_approved' ) ;
#941 = DIRECTION ( 'NONE',  ( 0.000000000000000000, 0.000000000000000000, -1.000000000000000000 ) ) ;
#942 = DIRECTION ( 'NONE',  ( 0.000000000000000000, 0.000000000000000000, 1.000000000000000000 ) ) ;
#943 = ORIENTED_EDGE ( 'NONE', *, *, #41, .T. ) ;
#944 = ORIENTED_EDGE ( 'NONE', *, *, #1209, .T. ) ;
#945 = CARTESIAN_POINT ( 'NONE',  ( -5.000000000000000000, 82.00000000000000000, 0.000000000000000000 ) ) ;
#946 = EDGE_CURVE ( 'NONE', #963, #142, #675, .T. ) ;
#947 = PERSON_AND_ORGANIZATION_ROLE ( 'design_supplier' ) ;
#948 = FACE_OUTER_BOUND ( 'NONE', #68, .T. ) ;
#949 = DIRECTION ( 'NONE',  ( -0.000000000000000000, -1.000000000000000000, -0.000000000000000000 ) ) ;
#950 = ORIENTED_EDGE ( 'NONE', *, *, #1174, .F. ) ;
#951 = DIRECTION ( 'NONE',  ( 0.000000000000000000, 0.000000000000000000, 1.000000000000000000 ) ) ;
#952 = FACE_OUTER_BOUND ( 'NONE', #1004, .T. ) ;
#953 = CC_DESIGN_PERSON_AND_ORGANIZATION_ASSIGNMENT ( #392, #786, ( #783 ) ) ;
#954 = DIRECTION ( 'NONE',  ( 0.000000000000000000, 0.000000000000000000, -1.000000000000000000 ) ) ;
#955 = APPROVAL_PERSON_ORGANIZATION ( #1087, #615, #599 ) ;
#956 = EDGE_LOOP ( 'NONE', ( #376, #969, #503, #1166 ) ) ;
#957 = VECTOR ( 'NONE', #1119, 1000.000000000000000 ) ;
#958 = VECTOR ( 'NONE', #432, 1000.000000000000114 ) ;
#959 = DIRECTION ( 'NONE',  ( 0.000000000000000000, 0.000000000000000000, -1.000000000000000000 ) ) ;
#960 = VECTOR ( 'NONE', #1278, 1000.000000000000000 ) ;
#961 = AXIS2_PLACEMENT_3D ( 'NONE', #649, #349, #45 ) ;
#962 = APPROVAL_DATE_TIME ( #743, #291 ) ;
#963 = VERTEX_POINT ( 'NONE', #326 ) ;
#964 = DIRECTION ( 'NONE',  ( 1.000000000000000000, 0.000000000000000000, -0.000000000000000000 ) ) ;
#965 = CARTESIAN_POINT ( 'NONE',  ( -15.00000000000000355, 2.000000000000000000, -2.500000000000003997 ) ) ;
#966 = ADVANCED_FACE ( 'NONE', ( #738 ), #1207, .F. ) ;
#967 = ORIENTED_EDGE ( 'NONE', *, *, #307, .T. ) ;
#968 = FACE_OUTER_BOUND ( 'NONE', #626, .T. ) ;
#969 = ORIENTED_EDGE ( 'NONE', *, *, #1020, .T. ) ;
#970 = DIRECTION ( 'NONE',  ( 0.000000000000000000, 0.000000000000000000, 1.000000000000000000 ) ) ;
#971 = CARTESIAN_POINT ( 'NONE',  ( -15.00000000000000355, 0.000000000000000000, 2.500000000000000444 ) ) ;
#972 = ORIENTED_EDGE ( 'NONE', *, *, #573, .F. ) ;
#973 = CARTESIAN_POINT ( 'NONE',  ( 0.000000000000000000, 25.00000000000000000, 2.500000000000000000 ) ) ;
#974 = VERTEX_POINT ( 'NONE', #723 ) ;
#975 = CARTESIAN_POINT ( 'NONE',  ( -5.000000000000000000, 90.00000000000000000, 0.000000000000000000 ) ) ;
#976 = DIRECTION ( 'NONE',  ( 0.000000000000000000, 0.000000000000000000, -1.000000000000000000 ) ) ;
#977 = DIRECTION ( 'NONE',  ( -0.000000000000000000, -1.000000000000000000, -0.000000000000000000 ) ) ;
#978 = CYLINDRICAL_SURFACE ( 'NONE', #175, 9.999999999999998224 ) ;
#979 = DIRECTION ( 'NONE',  ( 1.000000000000000000, 0.000000000000000000, 0.000000000000000000 ) ) ;
#980 = AXIS2_PLACEMENT_3D ( 'NONE', #865, #367, #1150 ) ;
#981 = VERTEX_POINT ( 'NONE', #417 ) ;
#982 = EDGE_CURVE ( 'NONE', #402, #44, #1219, .T. ) ;
#983 = CIRCLE ( 'NONE', #425, 9.999999999999998224 ) ;
#984 = DIRECTION ( 'NONE',  ( 0.000000000000000000, 1.000000000000000000, -0.000000000000000000 ) ) ;
#985 = CONICAL_SURFACE ( 'NONE', #407, 1.501370465245425390, 0.05235987755983000091 ) ;
#986 = DIRECTION ( 'NONE',  ( 0.000000000000000000, 0.000000000000000000, -1.000000000000000000 ) ) ;
#987 = CARTESIAN_POINT ( 'NONE',  ( -14.99999999999993072, 2.000000000000000000, 12.49999999999999822 ) ) ;
#988 = CARTESIAN_POINT ( 'NONE',  ( -11.00000000000000000, 82.00000000000000000, 0.000000000000000000 ) ) ;
#989 = VERTEX_POINT ( 'NONE', #1117 ) ;
#990 = DIRECTION ( 'NONE',  ( 0.000000000000000000, 0.000000000000000000, 1.000000000000000000 ) ) ;
#991 = ADVANCED_FACE ( 'NONE', ( #619 ), #235, .F. ) ;
#992 = LINE ( 'NONE', #1099, #282 ) ;
#993 = ORIENTED_EDGE ( 'NONE', *, *, #17, .F. ) ;
#994 = LINE ( 'NONE', #973, #652 ) ;
#995 = DIRECTION ( 'NONE',  ( 0.000000000000000000, 1.000000000000000000, 0.000000000000000000 ) ) ;
#996 = DIRECTION ( 'NONE',  ( 1.000000000000000000, -0.000000000000000000, 0.000000000000000000 ) ) ;
#997 = PLANE ( 'NONE',  #616 ) ;
#998 = EDGE_CURVE ( 'NONE', #981, #703, #926, .T. ) ;
#999 = PERSON_AND_ORGANIZATION ( #293, #198 ) ;
#1000 = FACE_OUTER_BOUND ( 'NONE', #590, .T. ) ;
#1001 = CARTESIAN_POINT ( 'NONE',  ( -5.000000000000000000, 81.94766404375705804, 0.000000000000000000 ) ) ;
#1002 = VECTOR ( 'NONE', #74, 1000.000000000000000 ) ;
#1003 = CIRCLE ( 'NONE', #831, 9.999999999999998224 ) ;
#1004 = EDGE_LOOP ( 'NONE', ( #653, #1061 ) ) ;
#1005 = DIRECTION ( 'NONE',  ( -0.000000000000000000, -1.000000000000000000, -0.000000000000000000 ) ) ;
#1006 = AXIS2_PLACEMENT_3D ( 'NONE', #252, #509, #214 ) ;
#1007 = ORIENTED_EDGE ( 'NONE', *, *, #471, .T. ) ;
#1008 = EDGE_CURVE ( 'NONE', #938, #560, #538, .T. ) ;
#1009 = ORIENTED_EDGE ( 'NONE', *, *, #1222, .F. ) ;
#1010 = CARTESIAN_POINT ( 'NONE',  ( -5.000000000000000000, 82.00000000000000000, 2.500000000000000000 ) ) ;
#1011 = CARTESIAN_POINT ( 'NONE',  ( -15.00000000000000355, 0.000000000000000000, -2.500000000000003997 ) ) ;
#1012 = ORIENTED_EDGE ( 'NONE', *, *, #946, .T. ) ;
#1013 = CARTESIAN_POINT ( 'NONE',  ( -11.00000000000000000, 82.00000000000000000, 0.000000000000000000 ) ) ;
#1014 = DIRECTION ( 'NONE',  ( -0.000000000000000000, -1.000000000000000000, -0.000000000000000000 ) ) ;
#1015 = ORIENTED_EDGE ( 'NONE', *, *, #24, .F. ) ;
#1016 = CARTESIAN_POINT ( 'NONE',  ( -1.317541634481457224, 25.00000000000000000, -2.500000000000000000 ) ) ;
#1017 = VERTEX_POINT ( 'NONE', #126 ) ;
#1018 = CARTESIAN_POINT ( 'NONE',  ( 0.000000000000000000, 65.00000000000000000, 0.000000000000000000 ) ) ;
#1019 = LOCAL_TIME ( 6, 12, 47.00000000000000000, #1200 ) ;
#1020 = EDGE_CURVE ( 'NONE', #161, #1279, #225, .T. ) ;
#1021 = ORIENTED_EDGE ( 'NONE', *, *, #895, .F. ) ;
#1022 = FACE_OUTER_BOUND ( 'NONE', #483, .T. ) ;
#1023 = AXIS2_PLACEMENT_3D ( 'NONE', #1001, #122, #517 ) ;
#1024 = DIRECTION ( 'NONE',  ( -1.000000000000000000, 0.000000000000000000, -0.000000000000000000 ) ) ;
#1025 = CIRCLE ( 'NONE', #343, 10.00000000000000000 ) ;
#1026 = CYLINDRICAL_SURFACE ( 'NONE', #360, 9.999999999999998224 ) ;
#1027 = DIRECTION ( 'NONE',  ( 0.000000000000000000, -0.9986295347545739443, 0.05233595624294395260 ) ) ;
#1028 = ADVANCED_FACE ( 'NONE', ( #226 ), #1026, .T. ) ;
#1029 = DIRECTION ( 'NONE',  ( 0.000000000000000000, 0.000000000000000000, -1.000000000000000000 ) ) ;
#1030 = CARTESIAN_POINT ( 'NONE',  ( -11.00000000000000000, 81.00000000000000000, 0.000000000000000000 ) ) ;
#1031 = ORIENTED_EDGE ( 'NONE', *, *, #791, .T. ) ;
#1032 = CARTESIAN_POINT ( 'NONE',  ( 5.000000000000000000, 81.00000000000000000, 0.000000000000000000 ) ) ;
#1033 = EDGE_CURVE ( 'NONE', #1170, #215, #715, .T. ) ;
#1034 = EDGE_CURVE ( 'NONE', #974, #273, #1122, .T. ) ;
#1035 = APPROVAL_ROLE ( '' ) ;
#1036 = DIRECTION ( 'NONE',  ( 0.000000000000000000, 1.000000000000000000, -0.000000000000000000 ) ) ;
#1037 = UNCERTAINTY_MEASURE_WITH_UNIT (LENGTH_MEASURE( 1.000000000000000082E-05 ), #181, 'distance_accuracy_value', 'NONE');
#1038 = CARTESIAN_POINT ( 'NONE',  ( -5.000000000000000000, 82.00000000000000000, -2.500000000000000000 ) ) ;
#1039 = AXIS2_PLACEMENT_3D ( 'NONE', #1185, #299, #1097 ) ;
#1040 = ORIENTED_EDGE ( 'NONE', *, *, #24, .T. ) ;
#1041 = VECTOR ( 'NONE', #240, 1000.000000000000000 ) ;
#1042 = EDGE_CURVE ( 'NONE', #81, #224, #119, .T. ) ;
#1043 = VECTOR ( 'NONE', #1164, 1000.000000000000000 ) ;
#1044 = DIRECTION ( 'NONE',  ( 0.000000000000000000, 0.000000000000000000, 1.000000000000000000 ) ) ;
#1045 = APPLICATION_CONTEXT ( 'configuration controlled 3d designs of mechanical parts and assemblies' ) ;
#1046 = CARTESIAN_POINT ( 'NONE',  ( -14.99999999999993072, 2.000000000000000000, -12.50000000000000178 ) ) ;
#1047 = VERTEX_POINT ( 'NONE', #516 ) ;
#1048 = CC_DESIGN_PERSON_AND_ORGANIZATION_ASSIGNMENT ( #464, #947, ( #630 ) ) ;
#1049 = FACE_OUTER_BOUND ( 'NONE', #497, .T. ) ;
#1050 = ORIENTED_EDGE ( 'NONE', *, *, #125, .T. ) ;
#1051 = CARTESIAN_POINT ( 'NONE',  ( 0.000000000000000000, 75.00000000000000000, 0.000000000000000000 ) ) ;
#1052 = DIRECTION ( 'NONE',  ( 0.000000000000000000, 1.000000000000000000, -0.000000000000000000 ) ) ;
#1053 = EDGE_LOOP ( 'NONE', ( #1015, #1007, #229, #1009 ) ) ;
#1054 = CARTESIAN_POINT ( 'NONE',  ( -25.00000000000000000, 2.000000000000000000, 2.499999999999927613 ) ) ;
#1055 = CALENDAR_DATE ( 2026, 1, 8 ) ;
#1056 = VERTEX_POINT ( 'NONE', #438 ) ;
#1057 = DIRECTION ( 'NONE',  ( 0.000000000000000000, 1.000000000000000000, -0.000000000000000000 ) ) ;
#1058 = EDGE_CURVE ( 'NONE', #161, #1112, #623, .T. ) ;
#1059 = CARTESIAN_POINT ( 'NONE',  ( 11.00000000000000000, 82.00000000000000000, -9.999999999999996447 ) ) ;
#1060 = VERTEX_POINT ( 'NONE', #1131 ) ;
#1061 = ORIENTED_EDGE ( 'NONE', *, *, #163, .T. ) ;
#1062 = AXIS2_PLACEMENT_3D ( 'NONE', #945, #56, #1044 ) ;
#1063 = DIRECTION ( 'NONE',  ( 0.000000000000000000, -0.000000000000000000, -1.000000000000000000 ) ) ;
#1064 = AXIS2_PLACEMENT_3D ( 'NONE', #251, #837, #1225 ) ;
#1065 = ORIENTED_EDGE ( 'NONE', *, *, #506, .T. ) ;
#1066 = CARTESIAN_POINT ( 'NONE',  ( 5.000000000000000000, 90.00000000000000000, 0.000000000000000000 ) ) ;
#1067 = DIRECTION ( 'NONE',  ( 0.000000000000000000, 1.000000000000000000, -0.000000000000000000 ) ) ;
#1068 = ADVANCED_FACE ( 'NONE', ( #1000 ), #462, .T. ) ;
#1069 = ORIENTED_EDGE ( 'NONE', *, *, #820, .F. ) ;
#1070 = EDGE_LOOP ( 'NONE', ( #390, #32, #7, #480 ) ) ;
#1071 = CARTESIAN_POINT ( 'NONE',  ( 5.000000000000000000, 81.00000000000000000, -1.551035433285119503 ) ) ;
#1072 = ORIENTED_EDGE ( 'NONE', *, *, #677, .T. ) ;
#1073 = FACE_OUTER_BOUND ( 'NONE', #558, .T. ) ;
#1074 = DIRECTION ( 'NONE',  ( 0.000000000000000000, -0.9986295347545739443, 0.05233595624294395260 ) ) ;
#1075 = MANIFOLD_SOLID_BREP ( 'Boss-Extrude5', #386 ) ;
#1076 = CARTESIAN_POINT ( 'NONE',  ( -11.00000000000000000, 25.00000000000000000, 0.000000000000000000 ) ) ;
#1077 = ADVANCED_FACE ( 'NONE', ( #255 ), #494, .T. ) ;
#1078 = CARTESIAN_POINT ( 'NONE',  ( -15.00000000000000355, 2.000000000000000000, 2.500000000000000444 ) ) ;
#1079 = DIRECTION ( 'NONE',  ( -0.000000000000000000, -1.000000000000000000, -0.000000000000000000 ) ) ;
#1080 = ORIENTED_EDGE ( 'NONE', *, *, #548, .F. ) ;
#1081 = DIRECTION ( 'NONE',  ( -0.000000000000000000, -1.000000000000000000, -0.000000000000000000 ) ) ;
#1082 = CARTESIAN_POINT ( 'NONE',  ( 0.000000000000000000, 15.00000000000000000, 2.500000000000000000 ) ) ;
#1083 = ORIENTED_EDGE ( 'NONE', *, *, #253, .T. ) ;
#1084 = VECTOR ( 'NONE', #896, 1000.000000000000000 ) ;
#1085 = DIRECTION ( 'NONE',  ( 0.000000000000000000, 1.000000000000000000, -0.000000000000000000 ) ) ;
#1086 = ORIENTED_EDGE ( 'NONE', *, *, #1033, .F. ) ;
#1087 = PERSON_AND_ORGANIZATION ( #293, #198 ) ;
#1088 = EDGE_CURVE ( 'NONE', #659, #1047, #1126, .T. ) ;
#1089 = VECTOR ( 'NONE', #439, 1000.000000000000000 ) ;
#1090 = ORIENTED_EDGE ( 'NONE', *, *, #639, .T. ) ;
#1091 = DIRECTION ( 'NONE',  ( 0.000000000000000000, 0.000000000000000000, 1.000000000000000000 ) ) ;
#1092 = AXIS2_PLACEMENT_3D ( 'NONE', #1018, #727, #526 ) ;
#1093 = VECTOR ( 'NONE', #500, 1000.000000000000000 ) ;
#1094 = CARTESIAN_POINT ( 'NONE',  ( 0.000000000000000000, 25.00000000000000000, 2.500000000000000000 ) ) ;
#1095 = EDGE_LOOP ( 'NONE', ( #1118, #857, #787, #806 ) ) ;
#1096 = CARTESIAN_POINT ( 'NONE',  ( 11.00000000000000000, 0.000000000000000000, 0.000000000000000000 ) ) ;
#1097 = DIRECTION ( 'NONE',  ( 0.000000000000000000, 0.000000000000000000, 1.000000000000000000 ) ) ;
#1098 = ADVANCED_FACE ( 'NONE', ( #559, #642, #365 ), #566, .T. ) ;
#1099 = CARTESIAN_POINT ( 'NONE',  ( -14.99999999999993072, 2.000000000000000000, -12.50000000000000178 ) ) ;
#1100 = CALENDAR_DATE ( 2026, 1, 8 ) ;
#1101 = PLANE ( 'NONE',  #595 ) ;
#1102 = DIRECTION ( 'NONE',  ( -1.000000000000000000, 0.000000000000000000, -0.000000000000000000 ) ) ;
#1103 = ADVANCED_FACE ( 'NONE', ( #764, #654, #646 ), #155, .T. ) ;
#1104 = ORIENTED_EDGE ( 'NONE', *, *, #581, .T. ) ;
#1105 = ORIENTED_EDGE ( 'NONE', *, *, #168, .T. ) ;
#1106 = CARTESIAN_POINT ( 'NONE',  ( -5.000000000000000000, 90.00000000000000000, 0.000000000000000000 ) ) ;
#1107 = CARTESIAN_POINT ( 'NONE',  ( 14.99999999999993072, 0.000000000000000000, 12.49999999999999822 ) ) ;
#1108 = AXIS2_PLACEMENT_3D ( 'NONE', #491, #374, #976 ) ;
#1109 = AXIS2_PLACEMENT_3D ( 'NONE', #550, #1159, #941 ) ;
#1110 = CARTESIAN_POINT ( 'NONE',  ( 11.00000000000000000, 81.00000000000000000, 0.000000000000000000 ) ) ;
#1111 = AXIS2_PLACEMENT_3D ( 'NONE', #279, #949, #663 ) ;
#1112 = VERTEX_POINT ( 'NONE', #840 ) ;
#1113 = DIRECTION ( 'NONE',  ( 0.000000000000000000, 0.000000000000000000, 1.000000000000000000 ) ) ;
#1114 = CARTESIAN_POINT ( 'NONE',  ( -5.000000000000000000, 82.00000000000000000, -2.500000000000000000 ) ) ;
#1115 = ORIENTED_EDGE ( 'NONE', *, *, #890, .F. ) ;
#1116 = ORIENTED_EDGE ( 'NONE', *, *, #639, .F. ) ;
#1117 = CARTESIAN_POINT ( 'NONE',  ( 5.000000000000000000, 90.00000000000000000, 1.079365419737748022 ) ) ;
#1118 = ORIENTED_EDGE ( 'NONE', *, *, #471, .F. ) ;
#1119 = DIRECTION ( 'NONE',  ( -0.000000000000000000, -1.000000000000000000, -0.000000000000000000 ) ) ;
#1120 = ORIENTED_EDGE ( 'NONE', *, *, #248, .F. ) ;
#1121 = EDGE_CURVE ( 'NONE', #461, #455, #551, .T. ) ;
#1122 = LINE ( 'NONE', #43, #1041 ) ;
#1123 = AXIS2_PLACEMENT_3D ( 'NONE', #1096, #1283, #1268 ) ;
#1124 = AXIS2_PLACEMENT_3D ( 'NONE', #476, #458, #848 ) ;
#1125 = DIRECTION ( 'NONE',  ( 0.000000000000000000, 0.000000000000000000, 1.000000000000000000 ) ) ;
#1126 = CIRCLE ( 'NONE', #774, 10.00000000000000000 ) ;
#1127 = DIRECTION ( 'NONE',  ( -0.000000000000000000, -1.000000000000000000, -0.000000000000000000 ) ) ;
#1128 = AXIS2_PLACEMENT_3D ( 'NONE', #1157, #272, #670 ) ;
#1129 = CIRCLE ( 'NONE', #409, 8.999999999999998224 ) ;
#1130 = ORIENTED_EDGE ( 'NONE', *, *, #125, .F. ) ;
#1131 = CARTESIAN_POINT ( 'NONE',  ( -14.99999999999993072, 2.000000000000000000, -12.50000000000000178 ) ) ;
#1132 = EDGE_CURVE ( 'NONE', #455, #461, #9, .T. ) ;
#1133 = ORIENTED_EDGE ( 'NONE', *, *, #537, .F. ) ;
#1134 = CARTESIAN_POINT ( 'NONE',  ( 0.000000000000000000, 81.00000000000000000, 0.000000000000000000 ) ) ;
#1135 = EDGE_CURVE ( 'NONE', #44, #564, #983, .T. ) ;
#1136 = VERTEX_POINT ( 'NONE', #544 ) ;
#1137 = DIRECTION ( 'NONE',  ( 0.000000000000000000, 1.000000000000000000, -0.000000000000000000 ) ) ;
#1138 = EDGE_LOOP ( 'NONE', ( #915, #917, #136, #944 ) ) ;
#1139 = LINE ( 'NONE', #453, #1089 ) ;
#1140 = EDGE_LOOP ( 'NONE', ( #283, #364, #605, #950 ) ) ;
#1141 = EDGE_CURVE ( 'NONE', #879, #1218, #1241, .T. ) ;
#1142 = DIRECTION ( 'NONE',  ( 0.000000000000000000, 0.000000000000000000, 1.000000000000000000 ) ) ;
#1143 = CARTESIAN_POINT ( 'NONE',  ( 11.00000000000000000, 82.00000000000000000, -9.999999999999996447 ) ) ;
#1144 = AXIS2_PLACEMENT_3D ( 'NONE', #780, #110, #684 ) ;
#1145 = VECTOR ( 'NONE', #629, 1000.000000000000000 ) ;
#1146 = ORIENTED_EDGE ( 'NONE', *, *, #637, .T. ) ;
#1147 = AXIS2_PLACEMENT_3D ( 'NONE', #835, #250, #1237 ) ;
#1148 = CIRCLE ( 'NONE', #1006, 10.00000000000000000 ) ;
#1149 = LINE ( 'NONE', #53, #855 ) ;
#1150 = DIRECTION ( 'NONE',  ( 0.000000000000000000, 0.000000000000000000, 1.000000000000000000 ) ) ;
#1151 = DIRECTION ( 'NONE',  ( 0.000000000000000000, 0.000000000000000000, 1.000000000000000000 ) ) ;
#1152 = ORIENTED_EDGE ( 'NONE', *, *, #315, .F. ) ;
#1153 = FACE_BOUND ( 'NONE', #85, .T. ) ;
#1154 = EDGE_CURVE ( 'NONE', #1112, #109, #736, .T. ) ;
#1155 = ORIENTED_EDGE ( 'NONE', *, *, #397, .T. ) ;
#1156 = DIRECTION ( 'NONE',  ( 0.000000000000000000, -0.000000000000000000, 1.000000000000000000 ) ) ;
#1157 = CARTESIAN_POINT ( 'NONE',  ( -11.00000000000000000, 0.000000000000000000, 0.000000000000000000 ) ) ;
#1158 = ORIENTED_EDGE ( 'NONE', *, *, #695, .F. ) ;
#1159 = DIRECTION ( 'NONE',  ( -0.000000000000000000, -1.000000000000000000, -0.000000000000000000 ) ) ;
#1160 = APPLICATION_CONTEXT ( 'configuration controlled 3d designs of mechanical parts and assemblies' ) ;
#1161 = EDGE_CURVE ( 'NONE', #846, #981, #1149, .T. ) ;
#1162 = ORIENTED_EDGE ( 'NONE', *, *, #350, .T. ) ;
#1163 = LINE ( 'NONE', #676, #94 ) ;
#1164 = DIRECTION ( 'NONE',  ( 1.000000000000000000, 0.000000000000000000, 0.000000000000000000 ) ) ;
#1165 = ORIENTED_EDGE ( 'NONE', *, *, #270, .T. ) ;
#1166 = ORIENTED_EDGE ( 'NONE', *, *, #1154, .F. ) ;
#1167 = AXIS2_PLACEMENT_3D ( 'NONE', #909, #100, #803 ) ;
#1168 = AXIS2_PLACEMENT_3D ( 'NONE', #496, #79, #377 ) ;
#1169 = FACE_OUTER_BOUND ( 'NONE', #798, .T. ) ;
#1170 = VERTEX_POINT ( 'NONE', #353 ) ;
#1171 = CARTESIAN_POINT ( 'NONE',  ( 5.000000000000000000, 90.00000000000000000, 0.000000000000000000 ) ) ;
#1172 = CARTESIAN_POINT ( 'NONE',  ( 5.000000000000000000, 82.00000000000000000, -2.499999999999999112 ) ) ;
#1173 = CARTESIAN_POINT ( 'NONE',  ( -14.99999999999993072, 2.000000000000000000, 12.49999999999999822 ) ) ;
#1174 = EDGE_CURVE ( 'NONE', #1259, #930, #162, .T. ) ;
#1175 = DIRECTION ( 'NONE',  ( -0.000000000000000000, -1.000000000000000000, 0.000000000000000000 ) ) ;
#1176 = DIRECTION ( 'NONE',  ( 0.000000000000000000, 0.000000000000000000, 1.000000000000000000 ) ) ;
#1177 = EDGE_LOOP ( 'NONE', ( #1165, #871, #488, #296 ) ) ;
#1178 = DIRECTION ( 'NONE',  ( 0.000000000000000000, -0.000000000000000000, 1.000000000000000000 ) ) ;
#1179 = DIRECTION ( 'NONE',  ( 0.000000000000000000, 1.000000000000000000, -0.000000000000000000 ) ) ;
#1180 = EDGE_CURVE ( 'NONE', #109, #1112, #342, .T. ) ;
#1181 = ORIENTED_EDGE ( 'NONE', *, *, #661, .F. ) ;
#1182 = CARTESIAN_POINT ( 'NONE',  ( -5.000000000000000000, 90.00000000000000000, 1.079365419737748910 ) ) ;
#1183 = EDGE_LOOP ( 'NONE', ( #750, #103 ) ) ;
#1184 = CARTESIAN_POINT ( 'NONE',  ( 1.317541634481460555, 15.00000000000000000, 2.500000000000000000 ) ) ;
#1185 = CARTESIAN_POINT ( 'NONE',  ( 11.00000000000000000, 82.00000000000000000, 0.000000000000000000 ) ) ;
#1186 = CARTESIAN_POINT ( 'NONE',  ( 25.00000000000000000, 0.000000000000000000, 2.499999999999927613 ) ) ;
#1187 = EDGE_CURVE ( 'NONE', #938, #1017, #301, .T. ) ;
#1188 = APPROVAL_PERSON_ORGANIZATION ( #514, #291, #836 ) ;
#1189 = CIRCLE ( 'NONE', #139, 9.999999999999996447 ) ;
#1190 = EDGE_LOOP ( 'NONE', ( #1012, #664 ) ) ;
#1191 = CARTESIAN_POINT ( 'NONE',  ( -11.00000000000000000, 82.00000000000000000, -10.00000000000000000 ) ) ;
#1192 = VECTOR ( 'NONE', #1027, 1000.000000000000114 ) ;
#1193 = DIRECTION ( 'NONE',  ( -0.000000000000000000, -1.000000000000000000, -0.000000000000000000 ) ) ;
#1194 = VECTOR ( 'NONE', #905, 1000.000000000000000 ) ;
#1195 = LINE ( 'NONE', #127, #878 ) ;
#1196 = VECTOR ( 'NONE', #708, 1000.000000000000000 ) ;
#1197 = VERTEX_POINT ( 'NONE', #660 ) ;
#1198 = DIRECTION ( 'NONE',  ( -0.000000000000000000, -1.000000000000000000, -0.000000000000000000 ) ) ;
#1199 = CC_DESIGN_SECURITY_CLASSIFICATION ( #154, ( #630 ) ) ;
#1200 = COORDINATED_UNIVERSAL_TIME_OFFSET ( 5, 30, .AHEAD. ) ;
#1201 = ADVANCED_FACE ( 'NONE', ( #1153, #1049 ), #268, .T. ) ;
#1202 = FACE_BOUND ( 'NONE', #756, .T. ) ;
#1203 = CARTESIAN_POINT ( 'NONE',  ( 11.00000000000000178, 82.00000000000000000, 9.999999999999996447 ) ) ;
#1204 = ORIENTED_EDGE ( 'NONE', *, *, #1042, .T. ) ;
#1205 = DIRECTION ( 'NONE',  ( 0.000000000000000000, 1.000000000000000000, -0.000000000000000000 ) ) ;
#1206 = EDGE_LOOP ( 'NONE', ( #735, #1240 ) ) ;
#1207 = PLANE ( 'NONE',  #1092 ) ;
#1208 = DIRECTION ( 'NONE',  ( 0.000000000000000000, 0.000000000000000000, -1.000000000000000000 ) ) ;
#1209 = EDGE_CURVE ( 'NONE', #44, #273, #863, .T. ) ;
#1210 = ORIENTED_EDGE ( 'NONE', *, *, #410, .F. ) ;
#1211 = CARTESIAN_POINT ( 'NONE',  ( 11.00000000000000000, 82.00000000000000000, 0.000000000000000000 ) ) ;
#1212 = VECTOR ( 'NONE', #399, 1000.000000000000000 ) ;
#1213 = DIRECTION ( 'NONE',  ( 0.000000000000000000, 1.000000000000000000, 0.000000000000000000 ) ) ;
#1214 = CIRCLE ( 'NONE', #815, 9.999999999999998224 ) ;
#1215 = LINE ( 'NONE', #300, #260 ) ;
#1216 = CIRCLE ( 'NONE', #571, 9.000000000000000000 ) ;
#1217 = EDGE_CURVE ( 'NONE', #320, #763, #891, .T. ) ;
#1218 = VERTEX_POINT ( 'NONE', #96 ) ;
#1219 = LINE ( 'NONE', #331, #701 ) ;
#1220 = EDGE_LOOP ( 'NONE', ( #249, #1086, #38, #116 ) ) ;
#1221 = CARTESIAN_POINT ( 'NONE',  ( 5.000000000000000000, 82.00000000000000000, 0.000000000000000000 ) ) ;
#1222 = EDGE_CURVE ( 'NONE', #182, #1056, #672, .T. ) ;
#1223 = CARTESIAN_POINT ( 'NONE',  ( 15.00000000000000355, 2.000000000000000000, 2.500000000000000444 ) ) ;
#1224 = ORIENTED_EDGE ( 'NONE', *, *, #168, .F. ) ;
#1225 = DIRECTION ( 'NONE',  ( 0.000000000000000000, 0.000000000000000000, 1.000000000000000000 ) ) ;
#1226 = FACE_OUTER_BOUND ( 'NONE', #916, .T. ) ;
#1227 = ORIENTED_EDGE ( 'NONE', *, *, #1020, .F. ) ;
#1228 = FACE_OUTER_BOUND ( 'NONE', #593, .T. ) ;
#1229 = EDGE_CURVE ( 'NONE', #823, #1136, #994, .T. ) ;
#1230 = CIRCLE ( 'NONE', #424, 9.999999999999996447 ) ;
#1231 = DIRECTION ( 'NONE',  ( -6.409306129323724811E-18, -0.9986295347545739443, -0.05233595624294395260 ) ) ;
#1232 = AXIS2_PLACEMENT_3D ( 'NONE', #287, #411, #795 ) ;
#1233 = EDGE_LOOP ( 'NONE', ( #179, #582, #352, #671 ) ) ;
#1234 = AXIS2_PLACEMENT_3D ( 'NONE', #1272, #693, #769 ) ;
#1235 = CIRCLE ( 'NONE', #961, 1.079365419737748022 ) ;
#1236 = ORIENTED_EDGE ( 'NONE', *, *, #705, .T. ) ;
#1237 = DIRECTION ( 'NONE',  ( 0.000000000000000000, 0.000000000000000000, -1.000000000000000000 ) ) ;
#1238 = EDGE_CURVE ( 'NONE', #124, #130, #93, .T. ) ;
#1239 = CARTESIAN_POINT ( 'NONE',  ( -25.00000000000000000, 2.000000000000000000, -2.499999999999931166 ) ) ;
#1240 = ORIENTED_EDGE ( 'NONE', *, *, #389, .F. ) ;
#1241 = LINE ( 'NONE', #61, #141 ) ;
#1242 = CARTESIAN_POINT ( 'NONE',  ( -11.00000000000000000, 81.00000000000000000, -9.000000000000001776 ) ) ;
#1243 = ORIENTED_EDGE ( 'NONE', *, *, #1008, .T. ) ;
#1244 = DIRECTION ( 'NONE',  ( 0.000000000000000000, 0.000000000000000000, 1.000000000000000000 ) ) ;
#1245 = PLANE ( 'NONE',  #199 ) ;
#1246 = CC_DESIGN_APPROVAL ( #615, ( #459 ) ) ;
#1247 = DIRECTION ( 'NONE',  ( 0.000000000000000000, 0.000000000000000000, 1.000000000000000000 ) ) ;
#1248 = CIRCLE ( 'NONE', #1167, 9.999999999999996447 ) ;
#1249 = ADVANCED_FACE ( 'NONE', ( #1169 ), #80, .F. ) ;
#1250 = ORIENTED_EDGE ( 'NONE', *, *, #1238, .F. ) ;
#1251 = VECTOR ( 'NONE', #341, 1000.000000000000114 ) ;
#1252 = ORIENTED_EDGE ( 'NONE', *, *, #573, .T. ) ;
#1253 = DIRECTION ( 'NONE',  ( 1.000000000000000000, -0.000000000000000000, 0.000000000000000000 ) ) ;
#1254 = ORIENTED_EDGE ( 'NONE', *, *, #1161, .T. ) ;
#1255 = DIRECTION ( 'NONE',  ( 0.000000000000000000, 0.000000000000000000, 1.000000000000000000 ) ) ;
#1256 = ORIENTED_EDGE ( 'NONE', *, *, #213, .T. ) ;
#1257 = CARTESIAN_POINT ( 'NONE',  ( -5.000000000000000000, 90.00000000000000000, 2.080737765735669598 ) ) ;
#1258 = ORIENTED_EDGE ( 'NONE', *, *, #340, .T. ) ;
#1259 = VERTEX_POINT ( 'NONE', #501 ) ;
#1260 = EDGE_CURVE ( 'NONE', #930, #852, #875, .T. ) ;
#1261 = DIRECTION ( 'NONE',  ( -0.000000000000000000, -1.000000000000000000, -0.000000000000000000 ) ) ;
#1262 = PERSON_AND_ORGANIZATION ( #293, #198 ) ;
#1263 = ORIENTED_EDGE ( 'NONE', *, *, #1135, .T. ) ;
#1264 = CYLINDRICAL_SURFACE ( 'NONE', #1108, 9.999999999999998224 ) ;
#1265 = ORIENTED_EDGE ( 'NONE', *, *, #1180, .F. ) ;
#1266 = PLANE ( 'NONE',  #6 ) ;
#1267 = ADVANCED_FACE ( 'NONE', ( #577, #704, #794 ), #87, .F. ) ;
#1268 = DIRECTION ( 'NONE',  ( 0.000000000000000000, 0.000000000000000000, 1.000000000000000000 ) ) ;
#1269 = ORIENTED_EDGE ( 'NONE', *, *, #253, .F. ) ;
#1270 = ADVANCED_FACE ( 'NONE', ( #378 ), #323, .T. ) ;
#1271 = FACE_BOUND ( 'NONE', #524, .T. ) ;
#1272 = CARTESIAN_POINT ( 'NONE',  ( 11.00000000000000000, 82.00000000000000000, 0.000000000000000000 ) ) ;
#1273 = VECTOR ( 'NONE', #809, 1000.000000000000000 ) ;
#1274 = AXIS2_PLACEMENT_3D ( 'NONE', #1171, #995, #1091 ) ;
#1275 = CARTESIAN_POINT ( 'NONE',  ( 0.000000000000000000, 75.00000000000000000, 2.500000000000000000 ) ) ;
#1276 = ORIENTED_EDGE ( 'NONE', *, *, #705, .F. ) ;
#1277 = DIRECTION ( 'NONE',  ( 0.000000000000000000, 0.000000000000000000, -1.000000000000000000 ) ) ;
#1278 = DIRECTION ( 'NONE',  ( 1.000000000000000000, -0.000000000000000000, 0.000000000000000000 ) ) ;
#1279 = VERTEX_POINT ( 'NONE', #1182 ) ;
#1280 = DIRECTION ( 'NONE',  ( -0.000000000000000000, -1.000000000000000000, -0.000000000000000000 ) ) ;
#1281 = ORIENTED_EDGE ( 'NONE', *, *, #372, .T. ) ;
#1282 = DIRECTION ( 'NONE',  ( 0.000000000000000000, 0.000000000000000000, 1.000000000000000000 ) ) ;
#1283 = DIRECTION ( 'NONE',  ( 0.000000000000000000, 1.000000000000000000, -0.000000000000000000 ) ) ;
#1284 = DIRECTION ( 'NONE',  ( -6.409306129323724811E-18, -0.9986295347545739443, -0.05233595624294395260 ) ) ;
#1285 = DIRECTION ( 'NONE',  ( 0.000000000000000000, 1.000000000000000000, -0.000000000000000000 ) ) ;
ENDSEC;
END-ISO-10303-21;
